<svg width="22" height="22" viewBox="0 0 22 22" fill="none" xmlns="http://www.w3.org/2000/svg">
<g clip-path="url(#clip0_1_1628)">
<path d="M16.3494 2.30665H15.92V1.8772C15.92 1.53551 15.7842 1.20782 15.5426 0.966212C15.301 0.724602 14.9733 0.588867 14.6316 0.588867C14.29 0.588867 13.9623 0.724602 13.7207 0.966212C13.479 1.20782 13.3433 1.53551 13.3433 1.8772V2.30665H8.18997V1.8772C8.18997 1.53551 8.05423 1.20782 7.81263 0.966212C7.57102 0.724602 7.24332 0.588867 6.90164 0.588867C6.55995 0.588867 6.23225 0.724602 5.99064 0.966212C5.74903 1.20782 5.6133 1.53551 5.6133 1.8772V2.30665H5.18386C3.931 2.30665 2.72946 2.80434 1.84356 3.69024C0.957656 4.57615 0.459961 5.77769 0.459961 7.03054L0.459961 16.4783C0.459961 17.7312 0.957656 18.9327 1.84356 19.8186C2.72946 20.7045 3.931 21.2022 5.18386 21.2022H16.3494C17.6023 21.2022 18.8038 20.7045 19.6897 19.8186C20.5756 18.9327 21.0733 17.7312 21.0733 16.4783V7.03054C21.0733 5.77769 20.5756 4.57615 19.6897 3.69024C18.8038 2.80434 17.6023 2.30665 16.3494 2.30665ZM16.3494 18.6256H5.18386C4.61438 18.6256 4.06822 18.3993 3.66554 17.9966C3.26286 17.594 3.03663 17.0478 3.03663 16.4783V9.17777H18.4966V16.4783C18.4966 17.0478 18.2704 17.594 17.8677 17.9966C17.4651 18.3993 16.9189 18.6256 16.3494 18.6256Z" fill="#DDDDDD"/>
</g>
<defs>
<clipPath id="clip0_1_1628">
<rect width="20.6134" height="20.6134" fill="white" transform="translate(0.459961 0.588867)"/>
</clipPath>
</defs>
</svg>
