<svg width="22" height="22" viewBox="0 0 22 22" fill="none" xmlns="http://www.w3.org/2000/svg">
<g clip-path="url(#clip0_1_1644)">
<path d="M16.5545 0.588867H5.38893C4.1365 0.590231 2.93575 1.08836 2.05014 1.97397C1.16454 2.85958 0.666403 4.06033 0.665039 5.31276L0.665039 16.4783C0.666403 17.7308 1.16454 18.9315 2.05014 19.8171C2.93575 20.7027 4.1365 21.2009 5.38893 21.2022H16.5545C17.8069 21.2009 19.0077 20.7027 19.8933 19.8171C20.7789 18.9315 21.277 17.7308 21.2784 16.4783V5.31276C21.277 4.06033 20.7789 2.85958 19.8933 1.97397C19.0077 1.08836 17.8069 0.590231 16.5545 0.588867ZM18.7017 16.4783C18.7017 17.0478 18.4755 17.594 18.0728 17.9966C17.6701 18.3993 17.124 18.6256 16.5545 18.6256H16.1251V17.7667C16.1251 16.3999 15.5821 15.0891 14.6157 14.1227C13.6492 13.1563 12.3385 12.6133 10.9717 12.6133C9.60497 12.6133 8.2942 13.1563 7.32776 14.1227C6.36132 15.0891 5.81838 16.3999 5.81838 17.7667V18.6256H5.38893C4.81945 18.6256 4.2733 18.3993 3.87062 17.9966C3.46793 17.594 3.24171 17.0478 3.24171 16.4783V5.31276C3.24171 4.74328 3.46793 4.19713 3.87062 3.79444C4.2733 3.39176 4.81945 3.16554 5.38893 3.16554H16.5545C17.124 3.16554 17.6701 3.39176 18.0728 3.79444C18.4755 4.19713 18.7017 4.74328 18.7017 5.31276V16.4783Z" fill="#DDDDDD"/>
<path d="M10.9714 10.8955C12.6317 10.8955 13.9776 9.54965 13.9776 7.88942C13.9776 6.22918 12.6317 4.8833 10.9714 4.8833C9.31122 4.8833 7.96533 6.22918 7.96533 7.88942C7.96533 9.54965 9.31122 10.8955 10.9714 10.8955Z" fill="#DDDDDD"/>
</g>
<defs>
<clipPath id="clip0_1_1644">
<rect width="20.6134" height="20.6134" fill="white" transform="translate(0.665039 0.588867)"/>
</clipPath>
</defs>
</svg>
