<svg xmlns="http://www.w3.org/2000/svg">


	<symbol id="arrow-bottom">
		<path d="M7.1875 0.688476L7.1875 11.6885M7.1875 11.6885L0.6875 5.98726M7.1875 11.6885L13.6875 5.98726" stroke="white" stroke-width="1.5"/>
	</symbol>
	<symbol id="arrow-right">
		<path d="M12.7 6.00006L6.83844 11.8616L5.47075 10.4939L8.98766 6.97698L0 6.97698L0 5.02314L8.98766 5.02314L5.47075 1.50623L6.83844 0.138539L12.7 6.00006Z" fill="#00474B"/>
	</symbol>
	<symbol id="social_01">
		<path fill-rule="evenodd" clip-rule="evenodd" d="M17.5332 8.98818C17.5332 9.56527 17.4745 10.1416 17.3591 10.7033C17.2465 11.2517 17.0799 11.7901 16.8615 12.3048C16.6482 12.8104 16.3836 13.2976 16.0744 13.752C15.7698 14.2035 15.419 14.627 15.0335 15.0131C14.6473 15.3976 14.2222 15.7475 13.771 16.0534C13.3151 16.3604 12.8272 16.6246 12.3213 16.8389C11.8059 17.0561 11.2662 17.2226 10.7183 17.3349C10.1558 17.4506 9.57743 17.5096 8.9995 17.5096C8.42114 17.5096 7.84278 17.4506 7.28109 17.3349C6.73232 17.2226 6.19271 17.0561 5.67767 16.8389C5.17182 16.6246 4.68344 16.3604 4.2276 16.0534C3.77633 15.7475 3.35131 15.3976 2.96587 15.0131C2.58003 14.627 2.22915 14.2035 1.92414 13.752C1.61663 13.2976 1.35159 12.8104 1.13743 12.3048C0.91906 11.7901 0.751992 11.2517 0.639065 10.7033C0.524903 10.1416 0.466553 9.56527 0.466553 8.98818C0.466553 8.41065 0.52487 7.83313 0.639099 7.27261C0.752025 6.7242 0.919094 6.18496 1.13747 5.67111C1.35163 5.16516 1.61666 4.67751 1.92418 4.22313C2.22919 3.77127 2.58006 3.3485 2.9659 2.96195C3.35134 2.57746 3.77636 2.2284 4.22763 1.923C4.68348 1.61466 5.17186 1.35047 5.67771 1.13575C6.19274 0.918096 6.73232 0.751269 7.28112 0.639772C7.84282 0.524941 8.42118 0.466675 8.99954 0.466675C9.57746 0.466675 10.1558 0.524941 10.7184 0.639772C11.2663 0.751302 11.8059 0.918129 12.3214 1.13575C12.8272 1.35044 13.3152 1.61466 13.771 1.923C14.2223 2.2284 14.6473 2.57746 15.0336 2.96195C15.419 3.3485 15.7699 3.77127 16.0745 4.22313C16.3836 4.67751 16.6482 5.16519 16.8615 5.67111C17.0799 6.18496 17.2465 6.7242 17.3591 7.27261C17.4745 7.83313 17.5332 8.41065 17.5332 8.98818ZM5.89014 2.40605C3.85793 3.36433 2.34119 5.23422 1.86824 7.48775C2.06036 7.48942 5.09718 7.52771 8.5961 6.59938C7.3348 4.36166 5.98723 2.53549 5.89014 2.40605ZM9.19987 7.71995C5.44761 8.84169 1.84699 8.76097 1.71783 8.75601C1.71573 8.83422 1.71199 8.90993 1.71199 8.98817C1.71199 10.8576 2.41827 12.5619 3.57917 13.8506C3.57666 13.8468 5.57096 10.3138 9.50365 9.04393C9.59864 9.01232 9.69533 8.984 9.79116 8.95655C9.60826 8.54298 9.40863 8.12855 9.19987 7.71995ZM13.8122 3.52659C12.5292 2.39689 10.8446 1.71164 8.99948 1.71164C8.40736 1.71164 7.83274 1.78321 7.2823 1.91552C7.39145 2.062 8.7603 3.87529 10.0066 6.16041C12.7563 5.13103 13.7943 3.55321 13.8122 3.52659ZM10.2879 10.1624C10.2717 10.1677 10.2554 10.1724 10.2396 10.1782C5.93984 11.675 4.53571 14.6914 4.52052 14.7244C5.75769 15.6851 7.30944 16.2647 8.99953 16.2647C10.0087 16.2647 10.97 16.0595 11.8446 15.688C11.7367 15.0522 11.3134 12.8237 10.2879 10.1624ZM13.0718 15.0231C14.7081 13.9205 15.8702 12.1696 16.1944 10.1415C16.0444 10.0933 14.0055 9.44874 11.6533 9.82531C12.6092 12.4484 12.9976 14.5846 13.0718 15.0231ZM10.5675 7.24475C10.7367 7.59178 10.9005 7.94498 11.0517 8.29995C11.1055 8.42729 11.158 8.55212 11.2092 8.67693C13.7127 8.36235 16.179 8.89161 16.2845 8.91323C16.2678 7.18815 15.6498 5.60493 14.6273 4.36543C14.6136 4.38494 13.4448 6.07136 10.5675 7.24475Z" fill="#393736"/>
	</symbol>
	<symbol id="social_02">
		<path fill-rule="evenodd" clip-rule="evenodd" d="M7.5208 4.00498L7.55438 4.55861L6.99479 4.49082C4.95791 4.23095 3.17843 3.34965 1.66756 1.86952L0.928908 1.13511L0.73865 1.67744C0.33575 2.88641 0.593158 4.16316 1.43253 5.02186C1.8802 5.4964 1.77948 5.5642 1.00725 5.28173C0.73865 5.19134 0.503625 5.12355 0.481242 5.15744C0.4029 5.23653 0.6715 6.26472 0.884142 6.67147C1.17513 7.2364 1.76828 7.79004 2.4174 8.1177L2.96579 8.37757L2.31668 8.38887C1.68994 8.38887 1.66756 8.40017 1.73471 8.63744C1.95854 9.37186 2.84268 10.1515 3.82755 10.4904L4.52143 10.7277L3.91708 11.0893C3.02175 11.609 1.96973 11.9028 0.917717 11.9254C0.414092 11.9367 0 11.9819 0 12.0158C0 12.1287 1.36538 12.7615 2.15999 13.01C4.54382 13.7445 7.37531 13.4281 9.50173 12.1739C11.0126 11.2813 12.5235 9.50744 13.2286 7.79004C13.6091 6.87485 13.9896 5.20264 13.9896 4.40043C13.9896 3.88069 14.0232 3.8129 14.6499 3.19147C15.0192 2.82991 15.3662 2.43446 15.4333 2.32147C15.5452 2.1068 15.534 2.1068 14.9633 2.29887C14.012 2.63783 13.8777 2.59264 14.3477 2.0842C14.6947 1.72264 15.1088 1.06732 15.1088 0.875237C15.1088 0.841341 14.9409 0.897835 14.7506 0.999523C14.5492 1.11251 14.1015 1.28199 13.7658 1.38368L13.1614 1.57576L12.613 1.2029C12.3108 0.999523 11.8856 0.773549 11.6617 0.705757C11.0909 0.547575 10.218 0.570172 9.70318 0.750952C8.30422 1.25939 7.42008 2.57004 7.5208 4.00498Z" fill="#393736"/>
	</symbol>
	<symbol id="social_03" viewBox="0 0 18 13">
		<path fill-rule="evenodd" clip-rule="evenodd" d="M15.6679 0.49952C16.4022 0.70103 16.9805 1.29478 17.1768 2.04878C17.5335 3.41533 17.5335 6.26663 17.5335 6.26663C17.5335 6.26663 17.5335 9.11784 17.1768 10.4845C16.9805 11.2385 16.4022 11.8322 15.6679 12.0338C14.3371 12.4 9.00013 12.4 9.00013 12.4C9.00013 12.4 3.66321 12.4 2.3323 12.0338C1.59795 11.8322 1.01962 11.2385 0.823354 10.4845C0.466797 9.11784 0.466797 6.26663 0.466797 6.26663C0.466797 6.26663 0.466797 3.41533 0.823354 2.04878C1.01962 1.29478 1.59795 0.70103 2.3323 0.49952C3.66321 0.133301 9.00013 0.133301 9.00013 0.133301C9.00013 0.133301 14.3371 0.133301 15.6679 0.49952ZM7.40015 3.86658V9.19991L11.6668 6.53335L7.40015 3.86658Z" fill="#393736"/>
	</symbol>
	<symbol id="social_04">
		<path fill-rule="evenodd" clip-rule="evenodd" d="M9.00069 0.466675C6.68315 0.466675 6.3923 0.476808 5.48207 0.518231C4.57362 0.559831 3.95352 0.703655 3.41094 0.914679C2.84969 1.13264 2.37359 1.4242 1.89928 1.89869C1.42461 2.37301 1.13305 2.8491 0.91438 3.41017C0.702822 3.95293 0.55882 4.57321 0.517931 5.4813C0.47722 6.39154 0.466553 6.68256 0.466553 9.0001C0.466553 11.3176 0.476864 11.6076 0.518109 12.5178C0.559887 13.4263 0.703711 14.0464 0.914557 14.589C1.13269 15.1502 1.42425 15.6263 1.89875 16.1006C2.37288 16.5753 2.84898 16.8676 3.40987 17.0855C3.95281 17.2965 4.57308 17.4404 5.48136 17.482C6.39159 17.5234 6.68226 17.5335 8.99962 17.5335C11.3173 17.5335 11.6073 17.5234 12.5175 17.482C13.426 17.4404 14.0468 17.2965 14.5897 17.0855C15.1508 16.8676 15.6262 16.5753 16.1003 16.1006C16.575 15.6263 16.8665 15.1502 17.0852 14.5891C17.295 14.0464 17.439 13.4261 17.4817 12.518C17.5226 11.6078 17.5332 11.3176 17.5332 9.0001C17.5332 6.68256 17.5226 6.39171 17.4817 5.48148C17.439 4.57303 17.295 3.95293 17.0852 3.41035C16.8665 2.8491 16.575 2.37301 16.1003 1.89869C15.6256 1.42402 15.151 1.13246 14.5892 0.914679C14.0452 0.703655 13.4247 0.559831 12.5163 0.518231C11.606 0.476808 11.3163 0.466675 8.99802 0.466675H9.00069ZM8.23513 2.00444C8.46233 2.00409 8.71585 2.00444 9.00065 2.00444C11.2791 2.00444 11.5491 2.01262 12.4489 2.05351C13.2809 2.09156 13.7324 2.23058 14.0332 2.34738C14.4315 2.50205 14.7154 2.68694 15.0139 2.98561C15.3125 3.28428 15.4974 3.56873 15.6525 3.96695C15.7693 4.2674 15.9085 4.71896 15.9463 5.55097C15.9872 6.45054 15.9961 6.72076 15.9961 8.99812C15.9961 11.2755 15.9872 11.5457 15.9463 12.4453C15.9083 13.2773 15.7693 13.7288 15.6525 14.0293C15.4978 14.4275 15.3125 14.7111 15.0139 15.0096C14.7152 15.3082 14.4316 15.4931 14.0332 15.6478C13.7328 15.7651 13.2809 15.9038 12.4489 15.9418C11.5493 15.9827 11.2791 15.9916 9.00065 15.9916C6.72205 15.9916 6.452 15.9827 5.55244 15.9418C4.72043 15.9034 4.26887 15.7644 3.96789 15.6476C3.56966 15.4929 3.28521 15.3081 2.98654 15.0094C2.68787 14.7107 2.50298 14.427 2.34796 14.0286C2.23116 13.7281 2.09196 13.2766 2.05409 12.4446C2.0132 11.545 2.00502 11.2748 2.00502 8.99598C2.00502 6.7172 2.0132 6.4484 2.05409 5.54884C2.09213 4.71683 2.23116 4.26527 2.34796 3.96447C2.50263 3.56624 2.68787 3.28179 2.98654 2.98312C3.28521 2.68445 3.56966 2.49956 3.96789 2.34454C4.26869 2.2272 4.72043 2.08853 5.55244 2.05031C6.33964 2.01476 6.64471 2.00409 8.23513 2.00231V2.00444ZM13.5557 3.42135C12.9904 3.42135 12.5317 3.87949 12.5317 4.44501C12.5317 5.01035 12.9904 5.46902 13.5557 5.46902C14.1211 5.46902 14.5797 5.01035 14.5797 4.44501C14.5797 3.87967 14.1211 3.42135 13.5557 3.42135ZM9.0007 4.61781C6.58059 4.61781 4.61843 6.57996 4.61843 9.00007C4.61843 11.4202 6.58059 13.3815 9.0007 13.3815C11.4208 13.3815 13.3823 11.4202 13.3823 9.00007C13.3823 6.57996 11.4208 4.61781 9.0007 4.61781ZM9.00067 6.1556C10.5715 6.1556 11.8451 7.42903 11.8451 9.00007C11.8451 10.5709 10.5715 11.8445 9.00067 11.8445C7.42963 11.8445 6.15619 10.5709 6.15619 9.00007C6.15619 7.42903 7.42963 6.1556 9.00067 6.1556Z" fill="#393736"/>

	</symbol>
	<symbol id="long-arrow__next">
		<rect x="10.5" y="0.5" width="55" height="55" rx="27.5" fill='none'/>
<path d="M39.5 20.5L38.4275 21.5448L44.1125 27.25H29V28.75H44.1125L38.4275 34.4298L39.5 35.5L47 28L39.5 20.5Z" />
<path d="M39.5 35.5L38.4425 34.4425L44.1275 28.75H0V27.25H44.1275L38.4425 21.5575L39.5 20.5L47 28L39.5 35.5Z"/>
	</symbol>
	<symbol id="long-arrow__prev"  > 
		<rect x="0.5" y="0.5" width="55" height="55" fill='none' rx="27.5"/>
<path d="M26.5 35.5L27.5575 34.4425L21.8725 28.75H66V27.25H21.8725L27.5575 21.5575L26.5 20.5L19 28L26.5 35.5Z"/>
	</symbol>
	<symbol id="play"> 
		   <path fill-rule="evenodd" clip-rule="evenodd" d="M20.664 13.7295C21.9982 12.9599 21.9983 11.0342 20.664 10.2646L3.33254 0.267835C1.99921 -0.501229 0.333258 0.461066 0.333257 2.0003L0.333257 21.9937C0.333257 23.533 1.9992 24.4953 3.33254 23.7262L20.664 13.7295Z" fill="white"/>
	</symbol>

</svg>