<svg xmlns="http://www.w3.org/2000/svg">


	<symbol id="arrow-bottom">
		<path d="M7.1875 0.688476L7.1875 11.6885M7.1875 11.6885L0.6875 5.98726M7.1875 11.6885L13.6875 5.98726"
			stroke="white" stroke-width="1.5" />
	</symbol>
	<symbol id="arrow-right">
		<path
			d="M12.7 6.00006L6.83844 11.8616L5.47075 10.4939L8.98766 6.97698L0 6.97698L0 5.02314L8.98766 5.02314L5.47075 1.50623L6.83844 0.138539L12.7 6.00006Z" />
	</symbol>
	<symbol id="social_01">
		<path fill-rule="evenodd" clip-rule="evenodd"
			d="M17.5332 8.98818C17.5332 9.56527 17.4745 10.1416 17.3591 10.7033C17.2465 11.2517 17.0799 11.7901 16.8615 12.3048C16.6482 12.8104 16.3836 13.2976 16.0744 13.752C15.7698 14.2035 15.419 14.627 15.0335 15.0131C14.6473 15.3976 14.2222 15.7475 13.771 16.0534C13.3151 16.3604 12.8272 16.6246 12.3213 16.8389C11.8059 17.0561 11.2662 17.2226 10.7183 17.3349C10.1558 17.4506 9.57743 17.5096 8.9995 17.5096C8.42114 17.5096 7.84278 17.4506 7.28109 17.3349C6.73232 17.2226 6.19271 17.0561 5.67767 16.8389C5.17182 16.6246 4.68344 16.3604 4.2276 16.0534C3.77633 15.7475 3.35131 15.3976 2.96587 15.0131C2.58003 14.627 2.22915 14.2035 1.92414 13.752C1.61663 13.2976 1.35159 12.8104 1.13743 12.3048C0.91906 11.7901 0.751992 11.2517 0.639065 10.7033C0.524903 10.1416 0.466553 9.56527 0.466553 8.98818C0.466553 8.41065 0.52487 7.83313 0.639099 7.27261C0.752025 6.7242 0.919094 6.18496 1.13747 5.67111C1.35163 5.16516 1.61666 4.67751 1.92418 4.22313C2.22919 3.77127 2.58006 3.3485 2.9659 2.96195C3.35134 2.57746 3.77636 2.2284 4.22763 1.923C4.68348 1.61466 5.17186 1.35047 5.67771 1.13575C6.19274 0.918096 6.73232 0.751269 7.28112 0.639772C7.84282 0.524941 8.42118 0.466675 8.99954 0.466675C9.57746 0.466675 10.1558 0.524941 10.7184 0.639772C11.2663 0.751302 11.8059 0.918129 12.3214 1.13575C12.8272 1.35044 13.3152 1.61466 13.771 1.923C14.2223 2.2284 14.6473 2.57746 15.0336 2.96195C15.419 3.3485 15.7699 3.77127 16.0745 4.22313C16.3836 4.67751 16.6482 5.16519 16.8615 5.67111C17.0799 6.18496 17.2465 6.7242 17.3591 7.27261C17.4745 7.83313 17.5332 8.41065 17.5332 8.98818ZM5.89014 2.40605C3.85793 3.36433 2.34119 5.23422 1.86824 7.48775C2.06036 7.48942 5.09718 7.52771 8.5961 6.59938C7.3348 4.36166 5.98723 2.53549 5.89014 2.40605ZM9.19987 7.71995C5.44761 8.84169 1.84699 8.76097 1.71783 8.75601C1.71573 8.83422 1.71199 8.90993 1.71199 8.98817C1.71199 10.8576 2.41827 12.5619 3.57917 13.8506C3.57666 13.8468 5.57096 10.3138 9.50365 9.04393C9.59864 9.01232 9.69533 8.984 9.79116 8.95655C9.60826 8.54298 9.40863 8.12855 9.19987 7.71995ZM13.8122 3.52659C12.5292 2.39689 10.8446 1.71164 8.99948 1.71164C8.40736 1.71164 7.83274 1.78321 7.2823 1.91552C7.39145 2.062 8.7603 3.87529 10.0066 6.16041C12.7563 5.13103 13.7943 3.55321 13.8122 3.52659ZM10.2879 10.1624C10.2717 10.1677 10.2554 10.1724 10.2396 10.1782C5.93984 11.675 4.53571 14.6914 4.52052 14.7244C5.75769 15.6851 7.30944 16.2647 8.99953 16.2647C10.0087 16.2647 10.97 16.0595 11.8446 15.688C11.7367 15.0522 11.3134 12.8237 10.2879 10.1624ZM13.0718 15.0231C14.7081 13.9205 15.8702 12.1696 16.1944 10.1415C16.0444 10.0933 14.0055 9.44874 11.6533 9.82531C12.6092 12.4484 12.9976 14.5846 13.0718 15.0231ZM10.5675 7.24475C10.7367 7.59178 10.9005 7.94498 11.0517 8.29995C11.1055 8.42729 11.158 8.55212 11.2092 8.67693C13.7127 8.36235 16.179 8.89161 16.2845 8.91323C16.2678 7.18815 15.6498 5.60493 14.6273 4.36543C14.6136 4.38494 13.4448 6.07136 10.5675 7.24475Z"
			fill="#393736" />
	</symbol>
	<symbol id="social_02">
		<path fill-rule="evenodd" clip-rule="evenodd"
			d="M7.5208 4.00498L7.55438 4.55861L6.99479 4.49082C4.95791 4.23095 3.17843 3.34965 1.66756 1.86952L0.928908 1.13511L0.73865 1.67744C0.33575 2.88641 0.593158 4.16316 1.43253 5.02186C1.8802 5.4964 1.77948 5.5642 1.00725 5.28173C0.73865 5.19134 0.503625 5.12355 0.481242 5.15744C0.4029 5.23653 0.6715 6.26472 0.884142 6.67147C1.17513 7.2364 1.76828 7.79004 2.4174 8.1177L2.96579 8.37757L2.31668 8.38887C1.68994 8.38887 1.66756 8.40017 1.73471 8.63744C1.95854 9.37186 2.84268 10.1515 3.82755 10.4904L4.52143 10.7277L3.91708 11.0893C3.02175 11.609 1.96973 11.9028 0.917717 11.9254C0.414092 11.9367 0 11.9819 0 12.0158C0 12.1287 1.36538 12.7615 2.15999 13.01C4.54382 13.7445 7.37531 13.4281 9.50173 12.1739C11.0126 11.2813 12.5235 9.50744 13.2286 7.79004C13.6091 6.87485 13.9896 5.20264 13.9896 4.40043C13.9896 3.88069 14.0232 3.8129 14.6499 3.19147C15.0192 2.82991 15.3662 2.43446 15.4333 2.32147C15.5452 2.1068 15.534 2.1068 14.9633 2.29887C14.012 2.63783 13.8777 2.59264 14.3477 2.0842C14.6947 1.72264 15.1088 1.06732 15.1088 0.875237C15.1088 0.841341 14.9409 0.897835 14.7506 0.999523C14.5492 1.11251 14.1015 1.28199 13.7658 1.38368L13.1614 1.57576L12.613 1.2029C12.3108 0.999523 11.8856 0.773549 11.6617 0.705757C11.0909 0.547575 10.218 0.570172 9.70318 0.750952C8.30422 1.25939 7.42008 2.57004 7.5208 4.00498Z"
			fill="#393736" />
	</symbol>
	<symbol id="social_03" viewBox="0 0 18 13">
		<path fill-rule="evenodd" clip-rule="evenodd"
			d="M15.6679 0.49952C16.4022 0.70103 16.9805 1.29478 17.1768 2.04878C17.5335 3.41533 17.5335 6.26663 17.5335 6.26663C17.5335 6.26663 17.5335 9.11784 17.1768 10.4845C16.9805 11.2385 16.4022 11.8322 15.6679 12.0338C14.3371 12.4 9.00013 12.4 9.00013 12.4C9.00013 12.4 3.66321 12.4 2.3323 12.0338C1.59795 11.8322 1.01962 11.2385 0.823354 10.4845C0.466797 9.11784 0.466797 6.26663 0.466797 6.26663C0.466797 6.26663 0.466797 3.41533 0.823354 2.04878C1.01962 1.29478 1.59795 0.70103 2.3323 0.49952C3.66321 0.133301 9.00013 0.133301 9.00013 0.133301C9.00013 0.133301 14.3371 0.133301 15.6679 0.49952ZM7.40015 3.86658V9.19991L11.6668 6.53335L7.40015 3.86658Z"
			fill="#393736" />
	</symbol>
	<symbol id="social_04">
		<path fill-rule="evenodd" clip-rule="evenodd"
			d="M9.00069 0.466675C6.68315 0.466675 6.3923 0.476808 5.48207 0.518231C4.57362 0.559831 3.95352 0.703655 3.41094 0.914679C2.84969 1.13264 2.37359 1.4242 1.89928 1.89869C1.42461 2.37301 1.13305 2.8491 0.91438 3.41017C0.702822 3.95293 0.55882 4.57321 0.517931 5.4813C0.47722 6.39154 0.466553 6.68256 0.466553 9.0001C0.466553 11.3176 0.476864 11.6076 0.518109 12.5178C0.559887 13.4263 0.703711 14.0464 0.914557 14.589C1.13269 15.1502 1.42425 15.6263 1.89875 16.1006C2.37288 16.5753 2.84898 16.8676 3.40987 17.0855C3.95281 17.2965 4.57308 17.4404 5.48136 17.482C6.39159 17.5234 6.68226 17.5335 8.99962 17.5335C11.3173 17.5335 11.6073 17.5234 12.5175 17.482C13.426 17.4404 14.0468 17.2965 14.5897 17.0855C15.1508 16.8676 15.6262 16.5753 16.1003 16.1006C16.575 15.6263 16.8665 15.1502 17.0852 14.5891C17.295 14.0464 17.439 13.4261 17.4817 12.518C17.5226 11.6078 17.5332 11.3176 17.5332 9.0001C17.5332 6.68256 17.5226 6.39171 17.4817 5.48148C17.439 4.57303 17.295 3.95293 17.0852 3.41035C16.8665 2.8491 16.575 2.37301 16.1003 1.89869C15.6256 1.42402 15.151 1.13246 14.5892 0.914679C14.0452 0.703655 13.4247 0.559831 12.5163 0.518231C11.606 0.476808 11.3163 0.466675 8.99802 0.466675H9.00069ZM8.23513 2.00444C8.46233 2.00409 8.71585 2.00444 9.00065 2.00444C11.2791 2.00444 11.5491 2.01262 12.4489 2.05351C13.2809 2.09156 13.7324 2.23058 14.0332 2.34738C14.4315 2.50205 14.7154 2.68694 15.0139 2.98561C15.3125 3.28428 15.4974 3.56873 15.6525 3.96695C15.7693 4.2674 15.9085 4.71896 15.9463 5.55097C15.9872 6.45054 15.9961 6.72076 15.9961 8.99812C15.9961 11.2755 15.9872 11.5457 15.9463 12.4453C15.9083 13.2773 15.7693 13.7288 15.6525 14.0293C15.4978 14.4275 15.3125 14.7111 15.0139 15.0096C14.7152 15.3082 14.4316 15.4931 14.0332 15.6478C13.7328 15.7651 13.2809 15.9038 12.4489 15.9418C11.5493 15.9827 11.2791 15.9916 9.00065 15.9916C6.72205 15.9916 6.452 15.9827 5.55244 15.9418C4.72043 15.9034 4.26887 15.7644 3.96789 15.6476C3.56966 15.4929 3.28521 15.3081 2.98654 15.0094C2.68787 14.7107 2.50298 14.427 2.34796 14.0286C2.23116 13.7281 2.09196 13.2766 2.05409 12.4446C2.0132 11.545 2.00502 11.2748 2.00502 8.99598C2.00502 6.7172 2.0132 6.4484 2.05409 5.54884C2.09213 4.71683 2.23116 4.26527 2.34796 3.96447C2.50263 3.56624 2.68787 3.28179 2.98654 2.98312C3.28521 2.68445 3.56966 2.49956 3.96789 2.34454C4.26869 2.2272 4.72043 2.08853 5.55244 2.05031C6.33964 2.01476 6.64471 2.00409 8.23513 2.00231V2.00444ZM13.5557 3.42135C12.9904 3.42135 12.5317 3.87949 12.5317 4.44501C12.5317 5.01035 12.9904 5.46902 13.5557 5.46902C14.1211 5.46902 14.5797 5.01035 14.5797 4.44501C14.5797 3.87967 14.1211 3.42135 13.5557 3.42135ZM9.0007 4.61781C6.58059 4.61781 4.61843 6.57996 4.61843 9.00007C4.61843 11.4202 6.58059 13.3815 9.0007 13.3815C11.4208 13.3815 13.3823 11.4202 13.3823 9.00007C13.3823 6.57996 11.4208 4.61781 9.0007 4.61781ZM9.00067 6.1556C10.5715 6.1556 11.8451 7.42903 11.8451 9.00007C11.8451 10.5709 10.5715 11.8445 9.00067 11.8445C7.42963 11.8445 6.15619 10.5709 6.15619 9.00007C6.15619 7.42903 7.42963 6.1556 9.00067 6.1556Z"
			fill="#393736" />

	</symbol>
	<symbol id="long-arrow__next">
		<rect x="10.5" y="0.5" width="55" height="55" rx="27.5" fill='none' />
		<path
			d="M39.5 20.5L38.4275 21.5448L44.1125 27.25H29V28.75H44.1125L38.4275 34.4298L39.5 35.5L47 28L39.5 20.5Z" />
		<path d="M39.5 35.5L38.4425 34.4425L44.1275 28.75H0V27.25H44.1275L38.4425 21.5575L39.5 20.5L47 28L39.5 35.5Z" />
	</symbol>
	<symbol id="long-arrow__prev">
		<rect x="0.5" y="0.5" width="55" height="55" fill='none' rx="27.5" />
		<path
			d="M26.5 35.5L27.5575 34.4425L21.8725 28.75H66V27.25H21.8725L27.5575 21.5575L26.5 20.5L19 28L26.5 35.5Z" />
	</symbol>
	<symbol id="play">
		<path fill-rule="evenodd" clip-rule="evenodd"
			d="M20.664 13.7295C21.9982 12.9599 21.9983 11.0342 20.664 10.2646L3.33254 0.267835C1.99921 -0.501229 0.333258 0.461066 0.333257 2.0003L0.333257 21.9937C0.333257 23.533 1.9992 24.4953 3.33254 23.7262L20.664 13.7295Z"
			fill="white" />
	</symbol>
	<symbol id="bed">
		<path
			d="M30.8955 19.8273C31.1092 19.4832 31.3547 18.8669 31.3547 18.3881V16.4782C31.3547 15.7006 30.9763 15.0098 30.394 14.5801C30.9633 14.1592 31.3548 13.3817 31.3548 12.6794C31.3548 11.9058 30.9806 11.218 30.4037 10.7874V3.16267C30.4037 1.86261 29.346 0.804932 28.046 0.804932H16.6781C16.4244 0.804932 16.2188 1.01058 16.2188 1.26423C16.2188 1.51789 16.4244 1.72353 16.6781 1.72353H28.046C28.8396 1.72353 29.4852 2.36912 29.4852 3.16267V10.371C29.1839 10.3071 28.8148 10.3083 28.5014 10.3198V4.08488C28.5014 3.32508 27.8832 2.70698 27.1235 2.70698H4.23137C3.47157 2.70698 2.85347 3.32508 2.85347 4.08488V10.3198C2.53993 10.3084 2.1712 10.307 1.86965 10.3704V3.16267C1.86965 2.36912 2.51525 1.72353 3.30879 1.72353H14.6768C14.9304 1.72353 15.1361 1.51789 15.1361 1.26423C15.1361 1.01058 14.9304 0.804932 14.6768 0.804932H3.30879C2.00873 0.804932 0.951056 1.86261 0.951056 3.16267V10.7859C0.387281 11.2071 0 11.9815 0 12.6794C0 13.4577 0.378891 14.1492 0.961834 14.5793C0.378953 15.009 0.00012248 15.7002 0.00012248 16.4782V18.3881C0.00012248 18.9296 0.183597 19.4289 0.491573 19.8273H0.459299C0.205644 19.8273 0 20.033 0 20.2866V22.1887C0 22.4424 0.205644 22.648 0.459299 22.648H1.90236V24.091C1.90236 24.3447 2.108 24.5503 2.36166 24.5503H4.26389C4.51755 24.5503 4.72319 24.3447 4.72319 24.091V22.648H8.49398C8.74763 22.648 8.95328 22.4424 8.95328 22.1887C8.95328 21.9351 8.74763 21.7294 8.49398 21.7294H0.918599V20.7459H30.4362V21.7294H10.4959C10.2423 21.7294 10.0366 21.9351 10.0366 22.1887C10.0366 22.4424 10.2423 22.648 10.4959 22.648H26.6316V24.091C26.6316 24.3447 26.8372 24.5503 27.0909 24.5503H28.9931C29.2468 24.5503 29.4524 24.3447 29.4524 24.091V22.648H30.8955C31.1493 22.648 31.3548 22.4424 31.3548 22.1887V20.2866C31.3548 20.0329 31.1493 19.8273 30.8955 19.8273ZM3.77207 4.08488C3.77207 3.83165 3.97808 3.62558 4.23137 3.62558H27.1234C27.3767 3.62558 27.5827 3.83165 27.5827 4.08488V10.3198H26.5189C26.5707 10.175 26.5989 10.0192 26.5989 9.8568V7.88917C26.5989 7.12936 25.9808 6.51127 25.221 6.51127H18.4981C17.7384 6.51127 17.1202 7.12936 17.1202 7.88917V9.8568C17.1202 10.0192 17.1485 10.175 17.2003 10.3198H14.1544C14.2062 10.175 14.2345 10.0191 14.2345 9.85668V7.88935C14.2345 7.12955 13.6164 6.51145 12.8566 6.51145H6.13367C5.37386 6.51145 4.75577 7.12955 4.75577 7.88935V9.85668C4.75577 10.0191 4.784 10.175 4.83587 10.3198H3.77213L3.77207 4.08488ZM5.67437 9.85668V7.88935C5.67437 7.63606 5.88038 7.43005 6.13367 7.43005H12.8566C13.1099 7.43005 13.3159 7.63606 13.3159 7.88935V9.85668C13.3159 10.11 13.1099 10.316 12.8566 10.316H6.13367C5.88038 10.316 5.67437 10.11 5.67437 9.85668ZM2.35957 11.2384H20.8589C21.1126 11.2384 21.3182 11.0327 21.3182 10.7791C21.3182 10.7785 21.3182 10.7779 21.3182 10.7772C21.3182 10.7766 21.3182 10.776 21.3182 10.7754C21.3182 10.5217 21.1126 10.3161 20.8589 10.3161H18.4981C18.2448 10.3161 18.0388 10.1101 18.0388 9.8568V7.88917C18.0388 7.63588 18.2448 7.42987 18.4981 7.42987H25.221C25.4743 7.42987 25.6803 7.63588 25.6803 7.88917V9.8568C25.6803 10.1101 25.4743 10.3161 25.221 10.3161H22.8609C22.6071 10.3161 22.4016 10.5217 22.4016 10.7754V10.7772V10.7791C22.4016 11.0327 22.6071 11.2384 22.8609 11.2384H28.9953C29.7899 11.2384 30.4362 11.8848 30.4362 12.6794C30.3538 13.5575 29.8734 14.0378 28.9953 14.1203H2.35957C1.56499 14.1203 0.918599 13.4739 0.918599 12.6794C0.918599 12.2946 1.25174 11.2384 2.35957 11.2384ZM0.918721 16.4782C0.918721 15.6846 1.56431 15.039 2.35786 15.039H28.997C29.7905 15.039 30.4361 15.6846 30.4361 16.4782V18.3881C30.4361 19.1816 29.7905 19.8272 28.997 19.8272H2.35786C1.56431 19.8272 0.918721 19.1816 0.918721 18.3881V16.4782ZM3.80459 23.6317H2.82096V22.6481H3.80459V23.6317ZM28.5339 23.6317H27.5502V22.6481H28.5339V23.6317Z" />
	</symbol>
	<symbol id="person">
		<path
			d="M20.5126 24.4604C20.7664 24.4604 20.9721 24.2547 20.9721 24.0009V21.4613C20.9721 19.8894 19.8475 18.5559 18.298 18.2906L13.8074 17.5227V16.0744C15.048 15.0899 15.6865 13.5981 15.7312 12.0418H16.1306C17.0411 12.0418 17.7818 11.3011 17.7818 10.3906V9.49758C17.7818 8.8371 17.3921 8.26598 16.8305 8.00216V3.38436C16.8305 2.55107 16.3886 1.77412 15.6769 1.35634C12.5825 -0.456665 9.2444 -0.452133 5.75464 1.37012C4.97598 1.77737 4.4923 2.5779 4.4923 3.45908V8.00216C3.93073 8.26604 3.541 8.83717 3.541 9.49758V10.3906C3.541 11.3011 4.2817 12.0418 5.19221 12.0418H5.59156C5.61544 13.5912 6.28878 15.1011 7.51529 16.0744V17.5227L3.02463 18.2906C1.47526 18.5559 0.350647 19.8894 0.350647 21.4613V30.8954C0.350647 31.1491 0.556352 31.3548 0.81013 31.3548H9.66022C9.91399 31.3548 10.1197 31.1491 10.1197 30.8954C10.1197 30.6416 9.91399 30.4359 9.66022 30.4359H4.45985V23.9788C4.45985 23.725 4.25414 23.5193 4.00036 23.5193C3.74658 23.5193 3.54088 23.725 3.54088 23.9788V30.4358H1.26967V21.4613C1.26967 20.1851 2.34823 19.2802 3.54088 19.1347V21.976C3.54088 22.2298 3.74658 22.4355 4.00036 22.4355C4.25414 22.4355 4.45985 22.2298 4.45985 21.976V18.9775L5.44379 18.8092V19.8065C5.44379 22.6831 7.78438 25.0234 10.6614 25.0234C13.4812 25.0234 15.8789 22.6329 15.8789 19.8065V18.8092L16.8629 18.9775V30.4359H11.6625C11.4087 30.4359 11.203 30.6416 11.203 30.8954C11.203 31.1491 11.4087 31.3548 11.6625 31.3548H20.5126C20.7664 31.3548 20.9721 31.1491 20.9721 30.8954V26.0031C20.9721 25.7493 20.7664 25.5436 20.5126 25.5436C20.2588 25.5436 20.0531 25.7493 20.0531 26.0031V30.4358H17.7819V19.1346C18.9688 19.2942 20.0531 20.1653 20.0531 21.4613V24.0008C20.0531 24.2547 20.2588 24.4604 20.5126 24.4604ZM16.8627 9.49758V10.3906C16.8627 10.7943 16.5342 11.1228 16.1305 11.1228H15.7311V8.76539H16.1305C16.5583 8.76533 16.8627 9.16774 16.8627 9.49758ZM5.59162 11.1228H5.19227C4.78852 11.1228 4.46003 10.7943 4.46003 10.3905V9.49752C4.46003 9.09346 4.80303 8.76527 5.19227 8.76527H5.59162V11.1228ZM5.41133 7.84637V3.45908C5.41133 2.92108 5.70614 2.4327 6.18032 2.18461C9.41532 0.49531 12.3697 0.483796 15.2119 2.14909C15.6434 2.40238 15.9114 2.87571 15.9114 3.38436V7.84637H15.7255C15.6326 6.00531 13.9878 3.92217 11.9303 4.57879C11.0624 4.85553 10.2072 4.85559 9.45727 4.57897C7.35172 3.8019 5.68715 5.97463 5.59695 7.84637H5.41133ZM6.51059 12.1015V8.06818C6.51059 6.78391 7.57536 4.86429 9.13919 5.44111C10.0828 5.78926 11.1445 5.79385 12.2095 5.45433C13.7655 4.95798 14.8121 6.77644 14.8121 8.06818V12.1015C14.8121 14.3902 12.9501 16.2523 10.6614 16.2523C8.37259 16.2523 6.51059 14.3902 6.51059 12.1015ZM8.43432 17.6699V16.6554C9.82593 17.3387 11.4968 17.3387 12.8884 16.6554V17.6696L10.6592 19.2134L8.43432 17.6699ZM9.78704 19.7269L8.43413 20.4632V18.7882L9.78704 19.7269ZM12.8886 18.7874V20.4417L11.538 19.7227L12.8886 18.7874ZM14.9599 19.8065C14.9599 22.1297 12.9896 24.1044 10.6614 24.1044C8.29114 24.1044 6.36281 22.1764 6.36281 19.8065V18.6521L7.5151 18.455V21.2365C7.5151 21.5958 7.91494 21.792 8.19426 21.6401L10.6614 20.2972L13.1322 21.6125C13.4113 21.7612 13.8076 21.5636 13.8076 21.2069V18.455L14.9599 18.6521L14.9599 19.8065Z" />
		<path
			d="M10.6615 14.7665C11.5503 14.7665 12.2734 14.0434 12.2734 13.1547C12.2734 12.9009 12.0676 12.6952 11.8139 12.6952C11.5601 12.6952 11.3544 12.9009 11.3544 13.1547C11.3544 13.5367 11.0435 13.8475 10.6615 13.8475C10.2795 13.8475 9.96865 13.5367 9.96865 13.1547C9.96865 12.9009 9.76294 12.6952 9.50917 12.6952C9.25539 12.6952 9.04968 12.9009 9.04968 13.1547C9.04968 14.0434 9.77274 14.7665 10.6615 14.7665Z" />
		<path
			d="M8.35646 10.7343C8.61023 10.7343 8.81594 10.5286 8.81594 10.2748V9.67164C8.81594 9.41786 8.61023 9.21216 8.35646 9.21216C8.10268 9.21216 7.89697 9.41786 7.89697 9.67164V10.2748C7.89697 10.5286 8.10268 10.7343 8.35646 10.7343Z" />
		<path
			d="M12.9667 10.7343C13.2205 10.7343 13.4262 10.5286 13.4262 10.2748V9.67164C13.4262 9.41786 13.2205 9.21216 12.9667 9.21216C12.7129 9.21216 12.5072 9.41786 12.5072 9.67164V10.2748C12.5072 10.5286 12.7129 10.7343 12.9667 10.7343Z" />
	</symbol>
	<symbol id="bathtub">
		<path
			d="M30.0242 10.0413H29.5651V2.00511C29.5651 1.25308 28.9533 0.641235 28.2012 0.641235H25.2846C24.5326 0.641235 23.9207 1.25302 23.9207 2.00511V2.551C22.8211 2.74078 21.982 3.70146 21.982 4.85442C21.982 5.1055 22.1855 5.30906 22.4367 5.30906H26.3141C26.5651 5.30906 26.7687 5.1055 26.7687 4.85442C26.7687 3.70146 25.9296 2.74085 24.83 2.551V2.00511C24.83 1.75439 25.0339 1.55046 25.2846 1.55046H28.2012C28.4519 1.55046 28.6559 1.75439 28.6559 2.00511V10.0413H21.9347C21.7527 9.50198 21.242 9.11262 20.6421 9.11262H19.7298C19.4787 9.11262 19.2751 9.31618 19.2751 9.56726C19.2751 9.81834 19.4786 10.0219 19.7298 10.0219H20.6421C20.8928 10.0219 21.0967 10.2258 21.0967 10.4766V14.7592H15.4164V10.4765C15.4164 10.2258 15.6203 10.0218 15.8711 10.0218H17.7483C17.9994 10.0218 18.203 9.81828 18.203 9.5672C18.203 9.31612 17.9995 9.11255 17.7483 9.11255H15.8711C15.2803 9.11255 14.776 9.49016 14.5869 10.0167C13.6281 9.9396 12.6798 9.67663 11.8227 9.24783C10.3974 8.53512 8.80134 8.15844 7.20714 8.15844H1.47594C0.702117 8.1585 0.0726318 8.78798 0.0726318 9.56175C0.0726318 10.3355 0.702117 10.9651 1.47594 10.9651H2.26759V16.2296C2.26759 18.7533 3.82737 20.9195 6.0336 21.8151V22.7416C6.0336 23.01 5.81522 23.2284 5.54681 23.2284C4.77702 23.2284 4.15078 23.8547 4.15078 24.6245C4.15078 25.3944 4.77702 26.0206 5.54681 26.0206H7.42969C8.19948 26.0206 8.82578 25.3944 8.82578 24.6245V23.6831C8.82578 22.8955 9.46653 22.2548 10.254 22.2548H10.2563H13.9732C14.2243 22.2548 14.4278 22.0513 14.4278 21.8002C14.4278 21.5491 14.2243 21.3455 13.9732 21.3455H8.29348C5.47216 21.3455 3.17688 19.0505 3.17688 16.2296V10.9651H4.80384C5.05493 10.9651 5.25849 10.7615 5.25849 10.5104C5.25849 10.2593 5.05499 10.0558 4.80384 10.0558H1.47594C1.20355 10.0558 0.981922 9.83414 0.981922 9.56175C0.981922 9.28935 1.20355 9.06773 1.47594 9.06773H7.20714C8.66092 9.06773 10.1163 9.41122 11.416 10.0611C12.3746 10.5407 13.4349 10.8353 14.5071 10.9225V11.9134C13.2814 11.824 12.0691 11.4925 10.9745 10.9444C9.68032 10.298 8.22452 10.0274 6.78465 10.0558C6.53357 10.0558 6.33 10.2593 6.33 10.5104C6.33 10.7615 6.5335 10.9651 6.78465 10.9651C8.07779 10.9297 9.40645 11.1776 10.5678 11.7577C11.7875 12.3684 13.1407 12.734 14.5071 12.8248V17.0963C14.5071 17.3474 14.7106 17.551 14.9618 17.551H21.5513C21.8024 17.551 22.006 17.3474 22.006 17.0963V12.8478H28.6283V16.2296C28.6283 19.0505 26.333 21.3455 23.5117 21.3455H15.9547C15.7036 21.3455 15.5 21.5491 15.5 21.8002C15.5 22.0513 15.7035 22.2548 15.9547 22.2548H21.5487H21.5511C22.3386 22.2548 22.9793 22.8955 22.9793 23.6831V24.6245C22.9793 25.3943 23.6056 26.0206 24.3754 26.0206H26.2583C27.0281 26.0206 27.6543 25.3944 27.6543 24.6245C27.6543 23.8547 27.0281 23.2284 26.2583 23.2284C25.9898 23.2284 25.7715 23.01 25.7715 22.7416V21.8151C27.9777 20.9195 29.5375 18.7533 29.5375 16.2296V12.8478H30.0242C30.798 12.8478 31.4275 12.2183 31.4275 11.4445C31.4275 10.6707 30.798 10.0413 30.0242 10.0413ZM25.7853 4.39977H22.9655C23.1783 3.76741 23.8131 3.4527 24.4312 3.42618C25.0599 3.42612 25.595 3.83441 25.7853 4.39977ZM8.40475 22.2548C8.09874 22.65 7.91642 23.1456 7.91642 23.683V24.6244C7.91642 24.8929 7.69804 25.1112 7.42963 25.1112H5.54668C5.27827 25.1112 5.05995 24.8929 5.05995 24.6244C5.05995 24.356 5.27833 24.1376 5.54668 24.1376C6.31647 24.1376 6.94277 23.5114 6.94277 22.7416V22.1022C7.42699 22.2081 7.91434 22.2589 8.40475 22.2548ZM26.2583 24.1376C26.5267 24.1376 26.7451 24.356 26.7451 24.6244C26.7451 24.8929 26.5267 25.1112 26.2583 25.1112H24.3755C24.107 25.1112 23.8887 24.8929 23.8887 24.6244V23.683C23.8887 23.1456 23.7063 22.65 23.4003 22.2548C23.8907 22.2589 24.3781 22.208 24.8623 22.1022V22.7416C24.8622 23.5114 25.4885 24.1376 26.2583 24.1376ZM15.4164 16.6418V15.6684H21.0967V16.6418H15.4164ZM30.0242 11.9385H22.006V10.9505H30.0242C30.2966 10.9505 30.5182 11.1721 30.5182 11.4445C30.5182 11.7169 30.2966 11.9385 30.0242 11.9385Z" />
		<path
			d="M24.83 7.67133V6.73712C24.83 6.48603 24.6265 6.28247 24.3754 6.28247C24.1242 6.28247 23.9207 6.48603 23.9207 6.73712V7.67133C23.9207 7.92241 24.1242 8.12598 24.3754 8.12598C24.6265 8.12598 24.83 7.92241 24.83 7.67133Z" />
		<path
			d="M27.0218 7.85632C27.2187 7.70053 27.1993 7.3909 27.0218 7.21342L26.3612 6.55283C26.1836 6.37529 25.8958 6.37529 25.7182 6.55283C25.5407 6.73036 25.5407 7.01825 25.7182 7.19573L26.3788 7.85632C26.6088 8.05749 26.8059 8.02724 27.0218 7.85632Z" />
		<path
			d="M22.1535 7.85632L22.8141 7.19573C22.9916 7.01819 22.9916 6.7303 22.8141 6.55283C22.6365 6.37529 22.3487 6.37529 22.1711 6.55283L21.5105 7.21342C21.333 7.39096 21.333 7.67885 21.5105 7.85632C21.5993 7.94512 21.8733 8.08781 22.1535 7.85632Z" />
		<path
			d="M14.9638 8.12795C15.7306 8.12795 16.3545 7.5041 16.3545 6.73732C16.3545 5.97053 15.7307 5.34668 14.9638 5.34668C14.197 5.34668 13.5731 5.97053 13.5731 6.73732C13.5731 7.5041 14.197 8.12795 14.9638 8.12795ZM14.9638 6.25591C15.2292 6.25591 15.4452 6.47184 15.4452 6.73732C15.4452 7.00279 15.2292 7.21872 14.9638 7.21872C14.6983 7.21872 14.4824 7.00279 14.4824 6.73732C14.4824 6.47184 14.6983 6.25591 14.9638 6.25591Z" />
		<path
			d="M11.1925 5.29812C11.9592 5.29812 12.5832 4.67427 12.5832 3.90748C12.5832 3.1407 11.9593 2.51685 11.1925 2.51685C10.4256 2.51685 9.80176 3.1407 9.80176 3.90748C9.80176 4.67427 10.4257 5.29812 11.1925 5.29812ZM11.1925 3.42607C11.4579 3.42607 11.6739 3.64201 11.6739 3.90748C11.6739 4.17296 11.4579 4.38889 11.1925 4.38889C10.927 4.38889 10.711 4.17296 10.711 3.90748C10.711 3.64201 10.927 3.42607 11.1925 3.42607Z" />
	</symbol>
	<symbol id="arrow-bottom_v2">
		<path d="M10.9167 1L5.95833 5.95833L1 1" fill="none" stroke="white" stroke-width="1.5" stroke-linecap="round"
			stroke-linejoin="round" />
	</symbol>
	<symbol id="arrow-right_v2">
		<path d="M1 1L6 6L1 11" stroke="white" fill="none" stroke-width="1.5" stroke-linecap="round"
			stroke-linejoin="round" />
	</symbol>
	<symbol id="arrow-spoiler">
		<path d="M33.5137 28.219L25.2571 19.9997L17.0005 28.219" stroke="#51514D" stroke-width="2"
			stroke-linecap="round" stroke-linejoin="round" />
		<path
			d="M10.2737 34.9769C8.57649 32.3444 7.60262 29.3127 7.45137 26.1919C7.30012 23.0712 7.97689 19.9735 9.41189 17.2153C10.8469 14.4572 12.9887 12.1373 15.6183 10.4924C18.2479 8.84751 21.2715 7.93635 24.3802 7.85234C27.4889 7.76833 30.5714 8.51452 33.3126 10.0153C36.0539 11.516 38.3552 13.7174 39.981 16.3945C41.6068 19.0715 42.4986 22.1279 42.5656 25.2509C42.6325 28.3739 41.8721 31.4513 40.3629 34.1687"
			stroke="#51514D" />
	</symbol>
	<symbol id="gb-flag">
		<path fill="#00247D" d="M0 9.059V13h5.628zM4.664 31H13v-5.837zM23 25.164V31h8.335zM0 23v3.941L5.63 23zM31.337 5H23v5.837zM36 26.942V23h-5.631zM36 13V9.059L30.371 13zM13 5H4.664L13 10.837z"></path><path fill="#CF1B2B" d="M25.14 23l9.712 6.801a3.977 3.977 0 0 0 .99-1.749L28.627 23H25.14zM13 23h-2.141l-9.711 6.8c.521.53 1.189.909 1.938 1.085L13 23.943V23zm10-10h2.141l9.711-6.8a3.988 3.988 0 0 0-1.937-1.085L23 12.057V13zm-12.141 0L1.148 6.2a3.994 3.994 0 0 0-.991 1.749L7.372 13h3.487z"></path><path fill="#EEE" d="M36 21H21v10h2v-5.836L31.335 31H32a3.99 3.99 0 0 0 2.852-1.199L25.14 23h3.487l7.215 5.052c.093-.337.158-.686.158-1.052v-.058L30.369 23H36v-2zM0 21v2h5.63L0 26.941V27c0 1.091.439 2.078 1.148 2.8l9.711-6.8H13v.943l-9.914 6.941c.294.07.598.116.914.116h.664L13 25.163V31h2V21H0zM36 9a3.983 3.983 0 0 0-1.148-2.8L25.141 13H23v-.943l9.915-6.942A4.001 4.001 0 0 0 32 5h-.663L23 10.837V5h-2v10h15v-2h-5.629L36 9.059V9zM13 5v5.837L4.664 5H4a3.985 3.985 0 0 0-2.852 1.2l9.711 6.8H7.372L.157 7.949A3.968 3.968 0 0 0 0 9v.059L5.628 13H0v2h15V5h-2z"></path><path fill="#CF1B2B" d="M21 15V5h-6v10H0v6h15v10h6V21h15v-6z"></path> 
	</symbol>
	<symbol id="ua-flag">
		<path fill="#005BBB" d="M32 5H4a4 4 0 0 0-4 4v9h36V9a4 4 0 0 0-4-4z"></path><path fill="#FFD500" d="M36 27a4 4 0 0 1-4 4H4a4 4 0 0 1-4-4v-9h36v9z"></path>
	</symbol>

</svg>