<svg width="13" height="19" viewBox="0 0 13 19" fill="none" xmlns="http://www.w3.org/2000/svg">
<path d="M9.10808 7.18757C9.10808 8.62817 7.94029 9.79601 6.49964 9.79601C5.05904 9.79601 3.8912 8.62817 3.8912 7.18757C3.8912 5.74697 5.05904 4.57913 6.49964 4.57913C7.94029 4.57913 9.10808 5.74697 9.10808 7.18757ZM6.49964 8.29341C7.11038 8.29341 7.60549 7.79831 7.60549 7.18757C7.60549 6.57683 7.11038 6.08173 6.49964 6.08173C5.88891 6.08173 5.3938 6.57683 5.3938 7.18757C5.3938 7.79831 5.88891 8.29341 6.49964 8.29341Z" fill="#282825" stroke="#282825" stroke-width="0.354545"/>
<path d="M9.64792 11.9122L9.49232 11.8273L9.64793 11.9122C10.6705 10.0386 11.3201 8.25789 11.3201 6.87798C11.3201 4.46412 9.2413 2.36737 6.5 2.36737C3.7587 2.36737 1.67987 4.46412 1.67987 6.87798C1.67987 8.25789 2.32954 10.0386 3.35211 11.9122C4.29758 13.6445 5.45712 15.2703 6.35974 16.4382L6.5 16.6196L6.64026 16.4382C7.54288 15.2703 8.70241 13.6445 9.64792 11.9122ZM12.8227 6.87798C12.8227 8.64619 12.0207 10.7012 10.9668 12.6321C9.91577 14.5579 8.62715 16.3374 7.68021 17.5487C7.06876 18.3309 5.93124 18.3309 5.31979 17.5487C4.37287 16.3374 3.08425 14.5579 2.03317 12.6321C0.979321 10.7012 0.177273 8.64619 0.177273 6.87798C0.177273 3.56503 2.99981 0.864773 6.5 0.864773C10.0002 0.864773 12.8227 3.56503 12.8227 6.87798Z" fill="#282825" stroke="#282825" stroke-width="0.354545"/>
</svg>
