<svg width="13.000000" height="17.625000" viewBox="0 0 13 17.625" fill="none" xmlns="http://www.w3.org/2000/svg" xmlns:xlink="http://www.w3.org/1999/xlink">
	<desc>
			Created with Pixso.
	</desc>
	<defs/>
	<path id="Vector" d="M6.49 9.28C8.03 9.28 9.28 8.03 9.28 6.49C9.28 4.96 8.03 3.71 6.49 3.71C4.96 3.71 3.71 4.96 3.71 6.49C3.71 8.03 4.96 9.28 6.49 9.28ZM7.42 6.49C7.42 7.01 7.01 7.42 6.49 7.42C5.98 7.42 5.57 7.01 5.57 6.49C5.57 5.98 5.98 5.57 6.49 5.57C7.01 5.57 7.42 5.98 7.42 6.49Z" fill="#282825" fill-opacity="1.000000" fill-rule="evenodd"/>
	<path id="Vector" d="M6.49 9.28C8.03 9.28 9.28 8.03 9.28 6.49C9.28 4.96 8.03 3.71 6.49 3.71C4.96 3.71 3.71 4.96 3.71 6.49C3.71 8.03 4.96 9.28 6.49 9.28ZM8.87 5.95Q8.93 6.22 8.93 6.49Q8.93 6.77 8.87 7.04Q8.82 7.24 8.73 7.44Q8.65 7.64 8.53 7.83Q8.39 8.03 8.21 8.21Q8.03 8.39 7.82 8.53Q7.64 8.65 7.44 8.73Q7.24 8.82 7.04 8.87Q6.77 8.93 6.49 8.93Q6.22 8.93 5.95 8.87Q5.75 8.82 5.55 8.73Q5.35 8.65 5.16 8.53Q4.96 8.39 4.78 8.21Q4.6 8.03 4.46 7.82Q4.34 7.64 4.25 7.44Q4.17 7.24 4.12 7.04Q4.06 6.77 4.06 6.49Q4.06 6.22 4.12 5.95Q4.17 5.75 4.25 5.55Q4.34 5.35 4.46 5.16Q4.6 4.96 4.78 4.78Q4.96 4.6 5.16 4.46Q5.35 4.34 5.55 4.25Q5.75 4.17 5.95 4.12Q6.22 4.06 6.49 4.06Q6.77 4.06 7.04 4.12Q7.24 4.17 7.44 4.25Q7.64 4.34 7.82 4.46Q8.03 4.6 8.21 4.78Q8.39 4.96 8.53 5.16Q8.65 5.35 8.73 5.55Q8.82 5.75 8.87 5.95ZM7.75 6.77Q7.78 6.64 7.78 6.49Q7.78 6.35 7.75 6.22Q7.72 6.11 7.68 6Q7.63 5.89 7.57 5.79Q7.49 5.68 7.4 5.59Q7.31 5.49 7.2 5.42Q7.1 5.36 6.99 5.31Q6.88 5.27 6.77 5.24Q6.64 5.21 6.49 5.21Q6.35 5.21 6.22 5.24Q6.11 5.27 6 5.31Q5.88 5.36 5.79 5.42Q5.68 5.49 5.59 5.59Q5.49 5.68 5.42 5.79Q5.36 5.89 5.31 6Q5.27 6.11 5.24 6.22Q5.21 6.35 5.21 6.49Q5.21 6.64 5.24 6.77Q5.27 6.88 5.31 6.99Q5.36 7.1 5.42 7.2Q5.49 7.31 5.59 7.4Q5.68 7.49 5.79 7.57Q5.89 7.63 6 7.68Q6.11 7.72 6.22 7.75Q6.35 7.78 6.49 7.78Q6.64 7.78 6.77 7.75Q6.88 7.72 6.99 7.68Q7.1 7.63 7.2 7.57Q7.31 7.49 7.4 7.4Q7.49 7.31 7.57 7.2Q7.63 7.1 7.68 6.99Q7.72 6.88 7.75 6.77ZM7.42 6.49C7.42 7.01 7.01 7.42 6.49 7.42C5.98 7.42 5.57 7.01 5.57 6.49C5.57 5.98 5.98 5.57 6.49 5.57C7.01 5.57 7.42 5.98 7.42 6.49Z" fill="#F6F8F3" fill-opacity="1.000000" fill-rule="evenodd"/>
	<path id="Vector" d="M7.81 16.97C9.71 14.53 13 9.81 13 6.19C13 2.77 10.08 0 6.5 0C2.91 0 0 2.77 0 6.19C0 9.81 3.28 14.53 5.18 16.97C5.86 17.84 7.13 17.84 7.81 16.97ZM9.49 11.13C10.51 9.27 11.14 7.52 11.14 6.19C11.14 3.88 9.15 1.85 6.5 1.85C3.84 1.85 1.85 3.88 1.85 6.19C1.85 7.52 2.48 9.27 3.5 11.13C4.44 12.86 5.6 14.47 6.5 15.64C7.39 14.47 8.55 12.86 9.49 11.13Z" fill="#282825" fill-opacity="1.000000" fill-rule="evenodd"/>
	<path id="Vector" d="M7.81 16.97C9.71 14.53 13 9.81 13 6.19C13 2.77 10.08 0 6.5 0C2.91 0 0 2.77 0 6.19C0 9.81 3.28 14.53 5.18 16.97C5.86 17.84 7.13 17.84 7.81 16.97ZM12.52 5.02Q12.64 5.59 12.64 6.19Q12.64 7.41 12.12 8.94Q11.66 10.29 10.81 11.85Q9.53 14.2 7.54 16.75Q7.4 16.93 7.22 17.05Q7.14 17.1 7.06 17.14Q6.92 17.2 6.78 17.23Q6.64 17.27 6.5 17.27Q6.35 17.27 6.21 17.23Q6.07 17.2 5.93 17.14Q5.85 17.1 5.77 17.05Q5.59 16.93 5.45 16.75Q3.46 14.2 2.18 11.85Q1.33 10.29 0.87 8.94Q0.35 7.41 0.35 6.19Q0.35 5.59 0.47 5.02Q0.59 4.46 0.83 3.92Q0.99 3.56 1.2 3.22Q1.59 2.59 2.14 2.06Q2.49 1.73 2.88 1.46Q3.45 1.07 4.1 0.81Q4.54 0.63 5 0.52Q5.73 0.35 6.5 0.35Q7.26 0.35 7.99 0.52Q8.45 0.63 8.89 0.81Q9.54 1.07 10.11 1.46Q10.5 1.73 10.85 2.06Q11.4 2.59 11.79 3.22Q12 3.56 12.16 3.92Q12.4 4.46 12.52 5.02ZM11.03 8.57Q11.49 7.22 11.49 6.19Q11.49 5.8 11.43 5.43Q11.33 4.9 11.11 4.39Q10.98 4.1 10.81 3.82Q10.5 3.32 10.06 2.9Q9.78 2.63 9.46 2.41Q9.01 2.09 8.47 1.88Q8.19 1.76 7.89 1.68Q7.22 1.5 6.5 1.5Q5.77 1.5 5.1 1.68Q4.8 1.76 4.52 1.88Q3.98 2.09 3.53 2.41Q3.21 2.63 2.93 2.9Q2.49 3.32 2.18 3.82Q2.01 4.1 1.88 4.39Q1.66 4.9 1.56 5.43Q1.5 5.8 1.5 6.19Q1.5 7.22 1.96 8.57Q2.39 9.83 3.19 11.3Q4.38 13.48 6.21 15.85L6.5 16.22L6.78 15.85Q8.61 13.48 9.8 11.3Q10.6 9.83 11.03 8.57ZM9.49 11.13C10.51 9.27 11.14 7.52 11.14 6.19C11.14 3.88 9.15 1.85 6.5 1.85C3.84 1.85 1.85 3.88 1.85 6.19C1.85 7.52 2.48 9.27 3.5 11.13C4.37 12.72 5.41 14.21 6.27 15.35C6.35 15.45 6.42 15.54 6.5 15.64C6.57 15.54 6.64 15.45 6.72 15.35C7.58 14.21 8.62 12.72 9.49 11.13Z" fill="#F6F8F3" fill-opacity="1.000000" fill-rule="evenodd"/>
</svg>
