<svg width="1440" height="2874" viewBox="0 0 1440 2874" fill="none" xmlns="http://www.w3.org/2000/svg">
<path fill-rule="evenodd" clip-rule="evenodd" d="M146.105 1820.33C95.3603 1820.5 38.2967 1885.85 8.87699 1913.76C-49.3113 1968.96 -103.045 2026.37 -157.637 2083.24C-212.23 2140.11 -266.674 2197.14 -326.608 2251.38C-365.514 2286.59 -409.333 2327.97 -464.887 2351.85C-583.276 2402.72 -565.695 2242.32 -568.285 2200.77C-574.9 2095.06 -571.881 1973.82 -633.532 1874.74C-670.336 1815.59 -732.061 1792.01 -822.022 1804.71C-851.279 1808.81 -884.946 1820.93 -913.448 1810.66C-943.889 1799.7 -961.455 1774.47 -973.235 1753.54C-1016.15 1677.18 -1021.12 1589.39 -1026.51 1508.61C-1032.43 1421.49 -1030.7 1333.56 -1031.16 1247.06C-1031.35 1210.38 -1050.4 1172.08 -1065.87 1137.15C-1086.16 1091.36 -1108.95 1046.12 -1130.99 1000.71C-1179.35 900.808 -1230.29 797.869 -1242.57 692.176C-1250.27 625.986 -1239.86 553.643 -1172.93 502.225C-1139.32 476.408 -1089.36 462.896 -1044.98 447.971C-991.363 429.903 -937.23 412.552 -884.458 393.317C-714.496 331.355 -548.41 242.89 -540.064 99.3012C-538.806 77.5791 -542.905 56.246 -543.675 34.6262C-544.148 20.858 -539.339 8.60475 -518.517 3.48644C-466.293 -9.38099 -383.849 31.0639 -342.413 47.6472C-251.712 83.9565 -165.081 124.903 -76.2004 163.26C-17.4202 188.636 62.9068 232.561 134.325 233.022C197.959 233.432 243.953 174.878 275.297 143.001C304.643 113.131 345.709 59.0098 405.407 55.7341C434.353 54.1474 458.341 67.3526 476.958 81.1414C509.515 105.31 532.483 133.154 569.627 154.896C630.568 190.55 714.417 220.339 796.535 215.497C853.435 212.139 890.698 189.68 926.319 161.11C941.295 149.102 951.891 139.357 976.205 138.722C1014.81 137.699 1055.67 148.161 1091.47 156.78C1219.58 187.612 1343.46 231.405 1459.13 280.121C1516.93 304.463 1574.56 330.761 1623.87 363.037C1656.25 384.176 1694.78 412.685 1694.74 444.93C1694.74 482.263 1675.26 521.766 1660.7 558.055C1633.49 625.832 1602.02 692.79 1569.75 759.481C1495.07 913.713 1414.35 1066.49 1327.58 1217.83C1266.36 1324.42 1205.05 1433.28 1123.66 1533.49C1107.68 1553.04 1089.04 1571.48 1068 1588.59C1045.91 1606.86 1036.02 1629.53 1028.65 1652.52C982.909 1795.22 1018.03 1951.56 1040.05 2094.85C1045.63 2131.22 1051.23 2167.59 1055.14 2204.06C1058.5 2235.42 1068.13 2272.96 1053.66 2303.43C1025.17 2363.48 920.177 2310.98 877.394 2288.79C726.759 2210.66 599.313 2109.84 469.204 2016.41C407.242 1971.98 345.442 1927.21 279.973 1885.2C245.936 1863.33 190.59 1820.19 146.105 1820.33Z" stroke="#00474B" stroke-opacity="0.08"/>
<path fill-rule="evenodd" clip-rule="evenodd" d="M137.55 1793.41C83.8543 1817.36 44.167 1859.38 6.81699 1894.25C-46.9523 1944.45 -97.7336 1996.22 -149.979 2047.21C-199.385 2095.43 -249.353 2143.75 -305.459 2188.4C-339.673 2215.63 -380.588 2249.79 -431.192 2262.69C-540.875 2290.66 -524.234 2140.16 -527.104 2103.01C-534.204 2010.64 -535.831 1905.92 -593.58 1820.47C-629.643 1767.11 -689.447 1745.19 -772.475 1756.57C-801.202 1760.5 -825.727 1767.59 -854.305 1758.62C-887.38 1748.24 -908.001 1724.37 -922.556 1702.49C-968.16 1633.95 -977.849 1552.94 -985.911 1478.64C-994.238 1401.88 -1000.11 1321.91 -994.017 1247.63C-991.591 1217.92 -1005.36 1183.73 -1015.92 1154.33C-1032.2 1109.09 -1050.97 1064.32 -1068.42 1019.31C-1103.92 927.83 -1138.12 833.978 -1142.01 738.814C-1144.82 670.11 -1129.59 598.476 -1070.7 541.317C-1010.98 483.389 -918.414 457.688 -830.416 425.564C-678.279 370.084 -493.304 295.152 -461.161 166.799C-456.279 147.337 -458.927 128.632 -457.729 109.189C-457.122 99.1914 -455.2 87.8108 -440.955 82.7402C-403.975 69.5771 -336.36 105.645 -308.033 117.784C-229.753 151.321 -155.304 189.028 -78.5335 224.174C-17.5752 252.088 50.1578 287.469 122.417 298.266C210.105 311.368 272.498 225.762 334.24 195.656C441.305 143.464 502.308 242.346 553.356 291.096C611.962 347.077 718.879 393.286 809.555 343.102C844.227 323.906 864.892 300.284 910.141 291.71C980.906 278.301 1061.77 288.442 1131.73 299.321C1236.88 315.711 1340.9 341.648 1435.94 376.907C1503.98 402.167 1610.68 444.074 1602.68 505.444C1597.34 546.756 1577.83 588.755 1560.58 628.982C1534.77 689.214 1505.35 748.689 1474.79 807.846C1404.43 944.404 1326.86 1079.46 1241.54 1211.85C1183.31 1302.19 945.317 1554.19 936.826 1573.15C911.532 1629.68 915.984 1693.96 919.904 1752.25C925.111 1829.78 938.601 1906.93 951.101 1984.01C957.017 2020.7 964.251 2057.58 967.165 2094.47C969.236 2120.72 971.011 2155.2 948.956 2178.2C905.925 2223.09 807.469 2173.08 765.815 2152.39C638.114 2089.04 527.529 2008.89 414.458 1933.74C358.943 1896.87 303.517 1859.43 243.55 1825.95C219.335 1812.45 170.714 1778.6 137.55 1793.41Z" stroke="#00474B" stroke-opacity="0.08"/>
<path fill-rule="evenodd" clip-rule="evenodd" d="M110.012 1760.27C2.56181 1825.68 -77.3527 1915.95 -167.092 1993.87C-212.147 2032.97 -258.429 2072.32 -312.095 2106.05C-340.001 2123.59 -375.29 2145.5 -414.189 2148.88C-518.251 2157.91 -504.18 2022.27 -508.131 1981.67C-515.795 1903.17 -521.61 1814.5 -574.714 1743.28C-607.177 1699.77 -660.458 1678.35 -730.489 1686.48C-761.561 1690.08 -787.957 1695.7 -818.467 1686.48C-849.376 1677.14 -871.186 1657.68 -887.536 1637.97C-934.558 1581.34 -949.592 1510.97 -960.792 1447.21C-973.838 1372.42 -978.932 1297.06 -976.032 1221.75C-973.532 1155.79 -1001.66 1090.15 -1020.2 1025.75C-1044.75 940.432 -1066.19 853.568 -1062.95 766.265C-1060.37 697.315 -1040.14 627.822 -986.39 568.878C-931.644 508.982 -849.702 472.971 -761.28 440.503C-627.61 391.423 -448.487 330.257 -397.721 222.582C-390.323 206.921 -389.509 192.326 -388.222 176.175C-387.6 168.329 -387.408 158.2 -375.586 154.308C-347.118 144.946 -291.928 179.554 -272.693 189.213C-211.288 220.042 -152.651 253.462 -92.0602 285.059C-35.4941 314.556 23.4541 346.685 89.7413 365.009C195.313 394.168 257.042 300.944 357.642 303.556C420.097 305.184 464.885 346.573 495.869 379.348C533.969 419.702 559.019 477.805 628.547 498.003C680.334 513.048 710.473 489.44 749.772 471.26C816.355 440.452 906.613 438.352 983.686 441.558C1087.84 445.88 1193.53 462.77 1289.26 491.519C1332.66 504.547 1377.8 520.505 1411.5 544C1443.09 566.01 1451.19 586.843 1444.72 616.258C1424.9 706.307 1369.63 797.226 1320.27 883.578C1258.25 992.073 1189.77 1099.07 1112.72 1202.88C1060.18 1273.66 1004.59 1346.04 932.003 1408.17C913.079 1424.36 892.512 1440.94 867.55 1452.78C848.789 1461.74 833.297 1465.54 822.585 1480.62C790.847 1525.34 799.147 1587.54 802.447 1635.45C807.7 1712.06 821.682 1788.31 834.274 1864.45C841.672 1908.88 864.946 1992.57 809.12 2028.05C760.914 2058.68 678.721 2021.72 636.256 2002.85C528.864 1955.1 434.612 1893.68 337.564 1836.69C293.086 1810.57 248.268 1783.43 198.819 1761.86C186.213 1756.35 169.508 1747.52 154.194 1746.01C136.645 1744.31 123.255 1752.24 110.012 1760.27Z" stroke="#00474B" stroke-opacity="0.08"/>
<path fill-rule="evenodd" clip-rule="evenodd" d="M135.026 1754.65C40.0206 1815.09 -38.0305 1887.9 -126.936 1952.78C-166.798 1981.88 -208.615 2011.25 -257.243 2033.42C-283.393 2045.34 -316.311 2058.01 -348.813 2054.72C-442.101 2045.28 -433.676 1933.72 -439.14 1888.65C-447.166 1821.67 -455.251 1744.73 -505.552 1685.52C-538.499 1646.72 -587.157 1632.18 -649.912 1639.42C-717.227 1647.19 -766.093 1629.81 -803.645 1590.25C-850.689 1540.65 -869.864 1478.04 -883.488 1420.45C-899.822 1351.07 -907.063 1280.8 -905.122 1210.52C-903.226 1142.16 -919.781 1075.94 -930.546 1008.03C-944.806 917.999 -951.84 825.079 -922.609 736.062C-897.155 658.558 -841.064 588.553 -754.321 536.075C-663.787 481.261 -549.723 454.126 -449.564 409.617C-387.091 381.856 -304.45 343.146 -280.165 291.272C-272.065 273.97 -282.993 242.44 -243.146 256.259C-220.357 264.157 -200.367 278.938 -181.739 290.616C-151.635 309.485 -122.36 328.979 -92.6708 348.165C-29.3829 389.058 35.2524 432.849 110.194 463.498C204.548 502.117 277.165 444.712 372.837 451.708C424.323 455.467 465.414 480.237 497.695 506.44C518.603 523.393 536.713 541.944 553.609 560.885C571.259 580.665 584.705 604.072 607.523 621.322C639.996 645.907 678.437 635.233 720.417 630.624C794.192 622.51 869.132 620.728 943.538 625.318C1034.74 630.931 1128.54 644.094 1211.42 671.824C1243.69 682.61 1277.89 696.275 1299.53 716.568C1321.16 736.861 1319.68 757.85 1313.17 781.103C1293.92 850.074 1249.12 918.901 1206.67 984.327C1153.53 1066.21 1094.13 1146.49 1026.56 1223.16C979.921 1276.08 929.53 1329.17 866.287 1373.44C847.881 1386.32 828.172 1398.57 806.168 1408.48C791.079 1415.28 771.607 1418.92 760.264 1428.78C724.859 1459.61 735.432 1521.51 737.49 1557.67C741.592 1629.84 761.093 1700.87 765.832 1772.95C768.423 1812.28 774.939 1873.89 726.532 1902.77C681.028 1929.94 609.359 1905.33 565.514 1889.1C479.304 1857.19 402.497 1814.32 322.358 1775.9C289.381 1760.1 254.879 1742.79 217.224 1732.55C183.669 1723.46 159.385 1739.16 135.026 1754.65Z" stroke="#00474B" stroke-opacity="0.08"/>
<path fill-rule="evenodd" clip-rule="evenodd" d="M136.58 1739.79C52.9776 1787.89 -21.2353 1845.89 -106.198 1894.34C-155.954 1922.7 -239.601 1971.55 -309.748 1949.61C-386.83 1925.55 -388.929 1841.67 -395.139 1793.18C-402.533 1735.48 -412.632 1667.71 -460.762 1618.32C-475.977 1602.7 -496.116 1589.4 -522.643 1583.76C-551.033 1577.72 -575.874 1584.32 -604.293 1585.18C-663.912 1586.98 -711.776 1562.35 -744.646 1529.76C-791.12 1483.71 -813.092 1426.11 -828.411 1371.71C-845.689 1310.08 -854.207 1247.42 -853.844 1184.64C-853.548 1124.64 -855.47 1065.27 -857.688 1005.21C-860.645 926.664 -855.87 847.012 -825.72 770.82C-795.999 695.763 -740.299 627.524 -658.367 573.921C-578.417 521.629 -480.694 486.347 -381.152 455.446C-324.653 437.913 -240.222 408.292 -211.685 366.47C-198.983 347.872 -199.855 329.622 -166.823 349.397C-125.228 374.3 -91.8554 407.862 -56.2793 436.705C-4.94083 478.312 47.4031 520.963 108.441 555.886C147.418 578.189 185.242 588.128 235.708 586.593C274.153 585.405 312.198 580.021 350.791 582.744C441.372 589.121 503.49 638.486 561.335 682.13C598.537 710.206 626.912 735.845 679.833 750.298C742.379 767.391 810.427 774.566 875.368 785.989C946.683 798.537 1020.87 813.03 1083.68 840.42C1139.6 864.801 1164.68 894.453 1149.61 938.834C1126.13 1008.06 1068.29 1076.29 1014.77 1137.74C960.331 1200.29 899.115 1261.76 824.281 1313.59C783.87 1341.58 736.421 1360.68 693.008 1385.53C638.505 1416.79 659.147 1487.5 663.76 1529.53C671.419 1599.29 728.732 1818.81 543.103 1798.56C465.622 1790.1 394.115 1756.81 325.743 1732.46C297.368 1722.36 263.314 1707.76 230.799 1705.48C195.386 1702.99 161.746 1725.32 136.58 1739.79Z" stroke="#00474B" stroke-opacity="0.08"/>
<path fill-rule="evenodd" clip-rule="evenodd" d="M143.679 1714.39C67.9183 1751.15 -3.65565 1795.14 -85.4819 1826.69C-138.474 1847.15 -209.279 1867.25 -265.349 1840.85C-328.623 1811.05 -343.373 1745.36 -351.436 1697.08C-359.735 1647.35 -366.718 1587.98 -414.696 1547.33C-429.978 1534.39 -450.586 1523.73 -475.263 1521.75C-498.933 1519.83 -522.604 1525.24 -546.704 1523.45C-600.82 1519.43 -645.41 1496.73 -677.75 1467.46C-773.424 1380.87 -794.698 1251.99 -797.198 1147.52C-798.441 1095.22 -791.916 1041.41 -787.241 988.776C-781.176 920.48 -768.157 852.082 -736.779 786.948C-670.087 648.464 -522.175 555.644 -338.121 490.817C-280.187 470.415 -217.505 454.802 -170.948 422.828C-146.907 406.345 -129.643 409.947 -107.718 426.798C-73.4545 453.144 -47.2688 485.282 -18.6718 514.523C21.9973 556.115 63.2729 598.596 111.99 635.378C145.573 660.732 177.927 678.729 228.287 684.193C264.192 688.091 300.778 687.181 336.905 689.524C405.535 693.985 473.647 709.26 530.575 736.302C575.697 757.788 616.706 783.367 655.807 809.806C706.714 844.173 758.434 873.241 818.853 899.342C898.83 933.945 1046.36 982.565 1007.32 1064.07C964.235 1153.96 854.773 1238.22 748.714 1295.9C713.105 1315.26 669.433 1331.16 643.173 1357.28C603.924 1396.39 605.3 1436.07 605.463 1482.58C605.685 1552.22 627.536 1703.75 476.754 1705.38C417.015 1706.03 360.531 1688.14 303.071 1679.58C238.716 1669.92 195.31 1689.28 143.679 1714.39Z" stroke="#00474B" stroke-opacity="0.08"/>
<path fill-rule="evenodd" clip-rule="evenodd" d="M150.434 1687C51.6927 1723.37 -110.559 1804.91 -220.358 1742.89C-278.385 1710.13 -300.191 1652.19 -313.186 1603.58C-323.697 1564.47 -327.644 1517.29 -372.203 1487.74C-404.963 1466.01 -452.641 1475.66 -493.651 1467.34C-544.493 1457.01 -586.094 1433.3 -617.362 1404.16C-704.749 1322.75 -731.567 1209.54 -737.273 1111.6C-743.187 1009.89 -715.526 897.809 -662.32 802.092C-595.955 682.746 -470.293 593.335 -311.16 530.806C-281.785 519.269 -251.641 508.786 -221.911 497.709C-201.967 490.267 -182.675 479.231 -161.696 473.365C-126.718 463.599 -98.1262 475.105 -75.3296 493.553C-42.5096 520.088 -19.1513 552.683 5.47852 582.934C39.1855 624.302 72.2864 666.592 111.833 705.074C138.444 730.933 167.11 758 213.279 767.254C244.769 773.571 278.121 774.881 310.734 774.656C380.661 774.164 437.209 776.703 501.253 799.286C606.395 836.448 700.937 893.592 779.602 953.96C841.339 1001.34 937.241 1076.31 895.965 1145.33C859.005 1207.27 770.539 1243.5 699.015 1284.3C664.244 1304.14 632.488 1326.43 607.755 1352.62C576.576 1385.63 563.492 1416.71 558.392 1455.83C549.803 1521.66 547.57 1620.93 433.439 1641.29C391.32 1648.8 347.694 1644.51 305.028 1648.45C248.613 1653.6 200.24 1668.66 150.434 1687Z" stroke="#00474B" stroke-opacity="0.08"/>
<path fill-rule="evenodd" clip-rule="evenodd" d="M154.09 1649.19C46.0487 1675.09 -90.1133 1709.1 -186.137 1646.57C-232.654 1616.27 -258.658 1573.66 -278.091 1532.42C-292.018 1502.89 -296.118 1455.99 -338.935 1437.88C-370.444 1424.58 -413.913 1422.74 -447.672 1410.71C-494.085 1394.18 -532.314 1369.13 -562.24 1339.75C-640.223 1263.21 -670.356 1163.51 -678.985 1072.59C-697.707 875.04 -548.595 674.031 -303.266 568.319C-230.138 536.799 -152.304 496.112 -77.5924 547.05C3.91238 602.663 42.097 686.441 100.01 752.816C122.122 778.178 148.703 810.496 188.738 824.645C212.803 833.157 242.995 833.74 269.488 834.128C336.962 835.152 397.643 839.029 460.603 857.802C557.899 886.795 647.663 933.027 721.19 985.417C785.305 1031.11 860.653 1096.27 814.432 1162.62C778.911 1213.5 703.519 1245.76 647.944 1285.29C586.05 1329.29 544.342 1383.69 523.963 1443.44C504.189 1501.56 490.855 1565.3 406.848 1595.93C378.032 1606.44 340.721 1617.42 308.827 1621.36C256.24 1627.72 204.49 1637.03 154.09 1649.19Z" stroke="#00474B" stroke-opacity="0.08"/>
<path fill-rule="evenodd" clip-rule="evenodd" d="M154.852 1607.03C45.7525 1619.01 -68.0075 1620.34 -153.993 1564.69C-194.108 1538.71 -222.608 1505.88 -248.429 1472.68C-267.428 1448.25 -283.453 1423.02 -314.601 1404.77C-343.441 1387.87 -376.927 1375.02 -406.521 1358.7C-445.739 1337.17 -479.69 1311.41 -507.067 1282.41C-575.563 1209.72 -607.599 1121.29 -618.711 1036.69C-624.112 995.735 -626.924 951.311 -612.201 910.633C-597.995 871.348 -575.533 832.503 -549.342 796.382C-493.72 719.593 -412.262 653.043 -309.274 604.799C-238.633 571.718 -169.945 553.832 -98.2824 596.67C-17.5051 644.965 27.0638 720.688 79.4899 783.102C115.447 825.909 150.694 873.887 227.106 881.883C287.907 888.252 345.616 893.422 403.088 909.896C487.86 934.414 564.651 970.463 628.906 1015.91C687.443 1057.46 737.117 1110.04 705.851 1169.48C681.036 1216.58 625.444 1253.12 585.699 1294.27C541.307 1340.13 516.833 1390.51 497.153 1443.57C479.396 1491.25 452.11 1536.14 394.18 1566.96C382.342 1573.27 369.454 1579.89 356.21 1584.76C339.312 1590.96 322.562 1590.48 303.622 1591.7C253.637 1594.87 204.229 1601.62 154.852 1607.03Z" stroke="#00474B" stroke-opacity="0.08"/>
<path fill-rule="evenodd" clip-rule="evenodd" d="M145.934 1560.55C42.3061 1559.53 -55.6306 1542.28 -136.39 1495.05C-170.937 1474.86 -199.393 1450.75 -231.051 1428.53C-256.573 1410.65 -280.286 1393.74 -301.317 1373.17C-351.115 1324.38 -415.557 1284.72 -459.901 1232.87C-519.184 1163.64 -551.953 1084.35 -565.055 1005.68C-571.458 967.259 -573.696 927.573 -566.463 888.705C-560.253 855.323 -538.452 823.353 -516.146 793.695C-472.454 735.568 -410.354 679.129 -331.789 641.387C-158.577 558.176 -32.6434 722.233 41.1055 806.436C75.0305 845.161 114.321 904.332 181.519 920.194C229.524 931.533 278.344 938.441 324.867 953.045C449.807 992.271 596.757 1071.9 577.193 1178.01C568.834 1223.42 534.879 1264.8 512.085 1307.19C488.608 1350.84 475.521 1395.89 461.16 1441.25C447.747 1483.65 428.658 1517.45 377.481 1544.83C353.041 1557.92 323.785 1556.76 293.802 1557.93C244.552 1559.83 195.021 1561.01 145.934 1560.55Z" stroke="#00474B" stroke-opacity="0.08"/>
<path fill-rule="evenodd" clip-rule="evenodd" d="M132.661 1518.22C-23.756 1501.17 -194.519 1437.86 -285.358 1344.76C-392.214 1235.25 -482.195 1116.61 -508.063 985.773C-520.057 925.112 -525.958 858.662 -486.736 801.423C-456.905 757.861 -412.314 707.26 -349.605 683.287C-196.22 624.633 -74.1153 755.095 -3.15385 829.423C35.0482 869.44 72.274 920.379 128.061 950.54C160.406 968.039 203.193 976.973 238.718 991.101C346.373 1033.91 433.204 1104.39 448.733 1192.18C455.906 1232.77 447.033 1273.66 439.978 1313.94C432.76 1355.18 428.841 1396.93 418.769 1437.91C410.724 1470.62 397.102 1509.17 346.506 1521.22C282.748 1536.42 196.538 1525.18 132.661 1518.22Z" stroke="#00474B" stroke-opacity="0.08"/>
<path fill-rule="evenodd" clip-rule="evenodd" d="M107.533 1476.71C-39.5249 1451.85 -182.971 1399.2 -270.762 1310.69C-317.315 1263.76 -349.45 1209.27 -381.2 1156.96C-417.184 1097.67 -445.116 1035.71 -458.97 972.437C-476.23 893.653 -491.787 766.056 -362.047 724.895C-233.269 684.041 -119.293 787.278 -54.3417 848.328C-12.7331 887.468 25.4561 929.358 70.9428 966.755C95.603 987.033 124.097 1002.65 153.02 1019.81C233.158 1067.24 296.6 1134.86 330.467 1203.77C363.298 1270.57 377.834 1353.2 366.984 1423.7C362.321 1454.13 346.586 1475.87 301.855 1485.07C239.671 1497.82 168.281 1486.99 107.533 1476.71Z" stroke="#00474B" stroke-opacity="0.08"/>
<path fill-rule="evenodd" clip-rule="evenodd" d="M67.9258 1435.47C-61.5535 1410.77 -179.815 1357.49 -257.527 1279.79C-344.642 1192.68 -393.049 1080.51 -417.666 977.42C-430.741 922.621 -466.191 803.87 -364.733 775.938C-263.275 748.007 -163.292 828.753 -108.251 875.227C-41.5509 931.631 22.8498 992.444 82.6957 1053.19C134.729 1105.96 187.927 1162.27 228.109 1219.43C250.904 1251.67 269.516 1285.26 283.725 1319.78C294.161 1345.35 309.727 1377.87 301.958 1404.67C282.339 1472.29 129.835 1447.28 67.9258 1435.47Z" stroke="#00474B" stroke-opacity="0.08"/>
<path fill-rule="evenodd" clip-rule="evenodd" d="M29.1533 1384.56C-215.707 1330.36 -336.134 1158.66 -378.11 993.342C-387.854 954.926 -422.984 847.235 -348.184 825.762C-275.662 804.954 -189.656 871.131 -148.907 902.114C-22.6399 998.117 70.9812 1116.73 163.73 1229.12C192.68 1264.21 255.503 1327.48 226.523 1371C195.001 1418.25 79.9263 1395.78 29.1533 1384.56Z" stroke="#00474B" stroke-opacity="0.08"/>
<path fill-rule="evenodd" clip-rule="evenodd" d="M-17.9761 1329.05C-198.298 1281.92 -301.719 1144.84 -335.813 1018.81C-344.156 987.938 -370.129 909.539 -319.809 886.159C-273.261 864.523 -205.812 916.156 -179.01 935.474C-119.327 978.479 -70.1601 1029.44 -22.9016 1079.8C20.8217 1126.35 65.6395 1173.41 102.618 1222.39C122.083 1248.2 163.618 1296.59 133.562 1325.91C101.228 1357.47 22.0641 1339.51 -17.9761 1329.05Z" stroke="#00474B" stroke-opacity="0.08"/>
<path fill-rule="evenodd" clip-rule="evenodd" d="M-70.6596 1267.87C-188.417 1231.95 -264.885 1135.75 -290.295 1050.88C-297.117 1028.05 -314.817 978.691 -283.369 959.427C-254.407 941.692 -211.948 970.275 -192.339 982.96C-105.423 1039.18 -27.7862 1121.51 19.8969 1196.95C31.8842 1215.91 55.4151 1250.01 31.2183 1269.52C6.37044 1289.53 -43.6214 1276.13 -70.6596 1267.87Z" stroke="#00474B" stroke-opacity="0.08"/>
<path fill-rule="evenodd" clip-rule="evenodd" d="M284.871 2844.4C169.348 2845.69 49.287 2888.17 -68.4238 2867.19C-165.099 2849.97 -173.171 2763.25 -216.97 2711.23C-251.768 2669.89 -313.41 2646.43 -372.553 2624.08C-425.651 2603.99 -480.345 2585.95 -532.571 2564.79C-566.333 2551.09 -632.631 2527.57 -633.829 2497.87C-634.982 2469.43 -583.318 2443.35 -552.778 2426.83C-512.969 2405.3 -470.53 2386.2 -430.086 2365.29C-361.866 2330.04 -311.37 2287.75 -263.579 2239.33C-209.2 2184.23 -156.679 2128.21 -106.015 2071.29C-68.6013 2029.38 -31.4684 1987.18 9.64099 1946.9C35.436 1921.63 83.833 1865.86 131.387 1865.6C154.078 1865.48 179.208 1880.35 197.346 1890.38C228.048 1907.35 256.12 1926.69 283.585 1946.09C334.746 1982.22 383.587 2019.89 433.019 2057.15C497.173 2105.51 560.279 2151.71 633.111 2194.22C708.5 2238.18 786.373 2280.17 863.181 2323.02C915.215 2352.04 973.649 2381.03 1005.58 2422.89C1045.49 2475.32 1003.41 2518.35 1002.92 2571.37C1002.49 2616.98 849.7 2613.62 807.216 2619.42C764.214 2625.23 724.184 2638.05 681.079 2643.02C627.272 2649.21 572.223 2649.3 517.839 2650.82C451.319 2652.67 387.992 2653.41 362.626 2702.58C348.213 2730.57 345.183 2760.85 336.55 2789.82C330.947 2808.59 321.369 2843.99 284.871 2844.4Z" stroke="#00474B" stroke-opacity="0.08"/>
<path fill-rule="evenodd" clip-rule="evenodd" d="M264.321 2821.97C167.484 2826.75 43.5401 2855 -56.4205 2828.29C-141.843 2805.47 -152.917 2734.1 -197.789 2686.05C-234.801 2646.38 -295.367 2628.72 -354.866 2608.89C-402.596 2592.98 -450.785 2577.55 -496.99 2559.49C-531.041 2546.18 -588.527 2525.86 -595.574 2498.19C-601.91 2473.31 -551.16 2446.63 -525.341 2432.67C-487.649 2412.3 -446.714 2394.87 -406.638 2376.87C-336.242 2345.25 -272.938 2312.87 -221.225 2266.58C-169.291 2220.1 -130.458 2169.24 -90.0417 2117.83C-58.4191 2077.62 -25.8787 2037.61 10.6294 1999.4C37.8106 1970.94 72.6015 1930.02 121.072 1917C159.416 1906.69 223.046 1958.98 245.504 1974.39C291.68 2006.13 335.028 2039.76 378.109 2073.45C430.606 2114.53 476.515 2156.91 536.4 2193.18C643.466 2258.06 776.796 2312.28 856.371 2395.76C904.368 2446.11 916.641 2502.14 909.46 2558.14C906.618 2580.31 861.36 2585.64 834.964 2588.43C791.112 2593.08 746.506 2593.66 702.477 2597.24C661.261 2600.58 622.103 2608.02 581.687 2614.01C540.737 2620.07 498.781 2621.77 457.55 2626.23C431.953 2628.99 402.166 2631.73 381.588 2643.82C360.284 2656.33 351.357 2676.97 344.576 2695.01C331.963 2728.88 332.659 2818.59 264.321 2821.97Z" stroke="#00474B" stroke-opacity="0.08"/>
<path fill-rule="evenodd" clip-rule="evenodd" d="M223.783 2793.11C134.894 2801.15 24.1822 2812.41 -57.7133 2779.65C-124.676 2752.88 -139.121 2695.78 -182.752 2654.99C-219.035 2621.07 -276.742 2608.25 -330.368 2591.41C-374.354 2577.6 -418.532 2563.71 -460.389 2546.96C-492.133 2534.26 -535.173 2517.89 -546.248 2492.67C-555.71 2471.11 -513.321 2446.76 -492.222 2434.8C-456.264 2414.45 -415.975 2397.86 -376.217 2381.38C-311.162 2354.42 -241.671 2329.61 -188.755 2291.24C-137.406 2253.96 -107.096 2209.67 -73.0161 2164.55C-46.9053 2129.99 -19.7892 2095.65 11.3485 2063.09C35.2415 2038.08 63.5553 2007.1 103.313 1994.07C137.6 1982.8 178.185 2011.73 202.374 2026.18C242.294 2050.05 278.917 2076.53 315.688 2102.65C355.357 2130.84 391.95 2162.06 432.595 2189.34C518.128 2246.7 612.827 2292.52 678.355 2363.22C720.804 2409 759.364 2470.61 752.43 2524.73C747.432 2563.66 622.911 2561.1 583.124 2564.83C518.069 2570.98 449.716 2582.85 389.792 2601.71C338.443 2617.9 322.608 2656.38 311.09 2691.78C303.86 2713.96 299.957 2737.2 288.779 2758.65C275.827 2783.47 261.042 2789.74 223.783 2793.11Z" stroke="#00474B" stroke-opacity="0.08"/>
<path fill-rule="evenodd" clip-rule="evenodd" d="M182.118 2766.19C106.967 2770.98 18.0995 2769.9 -46.9089 2738.89C-103.851 2711.72 -118.842 2663.33 -163.699 2628.92C-198.694 2602.06 -255.754 2591.51 -302.034 2577.07C-358.62 2559.41 -463.132 2534.68 -484.425 2490.14C-504.222 2448.72 -377.764 2405.4 -340.055 2390.4C-280.37 2366.66 -214.917 2346.8 -159.799 2318C-112.347 2293.2 -86.1157 2259.98 -57.9266 2224.72C-21.9229 2179.75 20.7686 2111.49 90.9373 2087.45C143.223 2069.53 220.954 2127.8 257.18 2147.7C295.023 2168.51 339.879 2184.18 376.387 2205.66C433.996 2239.55 480.38 2294.47 515.775 2339.81C550.207 2383.89 588.317 2441.13 586.048 2491.14C584.565 2524 511.193 2530.26 475.353 2537.27C424.402 2547.32 378.745 2560.67 344.09 2589.37C308.813 2618.57 292.19 2653 277.644 2689.18C270.229 2707.76 264.446 2728.95 249.469 2745.57C233.173 2763.93 211.004 2764.35 182.118 2766.19Z" stroke="#00474B" stroke-opacity="0.08"/>
<path fill-rule="evenodd" clip-rule="evenodd" d="M138.801 2733.39C73.8763 2733.13 4.6426 2722.86 -45.4382 2692.41C-87.1525 2667.05 -101.097 2627.35 -143.741 2603.07C-177.502 2583.84 -224.897 2574.05 -264.103 2561.18C-312.147 2545.43 -396.078 2523.17 -412.751 2484.01C-428.983 2445.79 -336.538 2411.99 -299.959 2397.34C-246.322 2375.88 -189.468 2358.51 -135.979 2336.86C-94.014 2319.9 -66.9668 2299.15 -39.9197 2271.53C-8.15067 2239.11 27.0417 2193.88 79.6014 2176.56C117.656 2164.07 178.464 2194.29 211.989 2205.27C234.507 2212.63 257.378 2219.36 281.784 2223.06C300.789 2225.94 318.378 2226.23 334.698 2234.57C375.748 2255.59 381.104 2301.68 394.635 2332.94C412.593 2374.47 433 2418.53 436.896 2461.99C439.33 2488.7 403.754 2502.33 378.729 2517.58C349.144 2535.59 327.866 2561.09 305.541 2583.37C276.029 2612.77 257.673 2644.76 238.874 2677.86C230.39 2692.79 222.068 2710.32 205.202 2721.89C187.716 2733.97 162.233 2733.48 138.801 2733.39Z" stroke="#00474B" stroke-opacity="0.08"/>
<path fill-rule="evenodd" clip-rule="evenodd" d="M100.258 2698.94C45.7301 2693.67 -6.38613 2677.22 -44.9332 2649.44C-74.5279 2628.14 -91.1898 2599.86 -126.748 2582.77C-159.894 2566.84 -197.583 2555.74 -233.022 2542.59C-270.489 2528.67 -333.112 2507.99 -343.307 2475.88C-354.287 2441.28 -291.117 2414.62 -256.106 2399.86C-211.862 2381.21 -164.259 2367.05 -118.491 2350.38C-84.3779 2337.81 -53.1791 2321.79 -25.9335 2302.84C2.78817 2282.97 30.2964 2256.02 69.7906 2245.96C104.771 2237.07 147.092 2253.71 182.561 2256.64C220.457 2259.78 260.262 2254.28 292.801 2271.69C359.907 2307.59 347.463 2397.69 348.898 2449.2C350.378 2500.03 309.315 2540.89 270.25 2582.02C244.458 2609.19 222.618 2637.48 198.587 2665.33C174.067 2693.73 148.246 2703.59 100.258 2698.94Z" stroke="#00474B" stroke-opacity="0.08"/>
<path fill-rule="evenodd" clip-rule="evenodd" d="M69.0481 2666.94C-9.94761 2651.33 -51.9336 2602.58 -111.632 2567.73C-160.504 2539.22 -261.715 2517.84 -275.103 2469.82C-290.298 2415.3 -156.195 2382.66 -104.449 2363.7C-47.0611 2342.67 -0.380449 2305.21 60.3695 2289.63C92.2551 2281.45 122.008 2288.48 153.879 2292.84C188.874 2297.62 224.655 2301.21 252.823 2317.71C308.257 2350.18 307.872 2413.61 309.397 2459.28C310.982 2506.57 272.994 2548.4 235.081 2586.07C194.932 2626.03 150.058 2682.92 69.0481 2666.94Z" stroke="#00474B" stroke-opacity="0.08"/>
<path fill-rule="evenodd" clip-rule="evenodd" d="M47.6277 2640.8C-8.65428 2623.21 -54.4101 2586.25 -97.6043 2556.26C-133.614 2531.23 -206.105 2504.3 -211.272 2466.14C-217.367 2421.28 -139.959 2394.1 -92.4958 2376.45C-45.8566 2359.08 3.38819 2334.05 54.5764 2324.43C107.899 2314.4 179.713 2341.11 217.445 2366.58C259.521 2395 275.067 2441.48 273.389 2481.37C271.681 2523.13 236.908 2561.45 200.839 2593.07C162.282 2626.89 112.964 2661.25 47.6277 2640.8Z" stroke="#00474B" stroke-opacity="0.08"/>
<path fill-rule="evenodd" clip-rule="evenodd" d="M37.0314 2616.54C-9.78022 2599.74 -49.3798 2570.62 -84.7023 2543.77C-111.972 2523.05 -158.341 2492.47 -159.477 2462.58C-160.731 2429.69 -121.809 2401.82 -81.9149 2388.74C-42.566 2375.86 6.76756 2362.28 49.9363 2360.35C143.943 2356.16 249.247 2441.45 240.678 2505.5C232.552 2566.23 130.301 2650.03 37.0314 2616.54Z" stroke="#00474B" stroke-opacity="0.08"/>
<path fill-rule="evenodd" clip-rule="evenodd" d="M31.87 2594.11C-29.1218 2570.93 -116.074 2514.63 -118.139 2462.52C-120.499 2402.7 -23.7379 2387.68 46.3841 2395.48C117.952 2403.4 221.542 2472.37 207.544 2527.36C193.885 2581.04 104.205 2621.57 31.87 2594.11Z" stroke="#00474B" stroke-opacity="0.08"/>
<path fill-rule="evenodd" clip-rule="evenodd" d="M22.0079 2570.42C-29.0595 2550.8 -92.8458 2508.92 -94.7764 2465.25C-97.0608 2413.22 -15.3678 2414.2 35.4785 2426C88.2702 2438.27 178.438 2492.31 164.201 2537.87C150.303 2582.18 70.953 2589.22 22.0079 2570.42Z" stroke="#00474B" stroke-opacity="0.08"/>
<path fill-rule="evenodd" clip-rule="evenodd" d="M16.1308 2549.79C-20.3081 2536.84 -66.3628 2504.42 -67.8365 2473.6C-69.6078 2435.94 -4.81264 2443.26 26.4611 2452.99C63.6741 2464.56 128.335 2503.33 117.856 2535.87C107.541 2567.91 46.1542 2560.47 16.1308 2549.79Z" stroke="#00474B" stroke-opacity="0.08"/>
<path fill-rule="evenodd" clip-rule="evenodd" d="M2098.12 777.895C2171.23 861.266 2231.58 955.515 2292.91 1044.39C2382.54 1174.27 2469.76 1306.07 2536.52 1442.54C2572.31 1515.71 2623.9 1610.52 2595.86 1689.03C2585.62 1717.74 2554.62 1743.91 2534.48 1769.65C2506.71 1805.14 2480.31 1841.15 2453.86 1877.1C2400.83 1949.21 2348.34 2021.55 2291.91 2092.43C2264.73 2126.56 2230.5 2159.67 2207.31 2195.2C2193.75 2215.97 2200.09 2240.81 2200.95 2263C2202.95 2314.39 2206.73 2365.75 2209.96 2417.11C2213.89 2479.94 2218.08 2542.9 2216.52 2605.8C2215.81 2634.16 2223.09 2703.64 2187.78 2719.25C2168.76 2727.65 2134.47 2707.85 2118.6 2698.67C2089.44 2681.82 2063.16 2662.45 2037.15 2643.33C1977 2599.12 1919.71 2552.17 1852.52 2512.88C1817.97 2492.69 1775.77 2466.23 1728.61 2479.41C1680.98 2492.72 1639.74 2515.76 1592.28 2529.82C1537.65 2546.01 1480.81 2552.73 1422.89 2560.37C1380.08 2566.03 1342.15 2579.21 1302.68 2591.6C1259.06 2605.29 1215.06 2619.48 1169.06 2628.98C1138.67 2635.27 1084 2645.41 1064.77 2623.43C1037.41 2592.2 1059.56 2533.63 1067.62 2498.03C1078.74 2448.83 1092.91 2399.98 1105.11 2350.91C1113.98 2315.29 1123.71 2279.55 1124.74 2243.33C1126.41 2184.95 1120.63 2126.37 1115.25 2068.15C1105.28 1960.33 1091.77 1853.28 1091.77 1745.1C1091.77 1650.32 1250.24 1431.29 1278.15 1380.02C1333.85 1277.69 1386.66 1172.64 1460.77 1075.8C1480.84 1049.6 1507.57 1009.28 1548.87 995.497C1574.32 986.993 1589.04 990.902 1605.44 970.845C1627.81 943.481 1636.59 908.421 1646.6 878.13C1662.72 829.348 1676.37 780.187 1690.97 731.18C1720.41 632.059 1753.71 533.615 1785.75 434.904C1795.44 405.063 1797.58 368.96 1814.65 340.512C1825.6 322.173 1839.4 324.077 1856.05 338.27C1885.27 363.168 1901.49 398.064 1918.16 427.474C1942.57 470.567 1964.35 514.366 1985.83 558.185C2007.3 602.004 2028.1 646.048 2049.62 689.888C2063.78 718.848 2075.3 751.871 2098.12 777.895Z" stroke="#00474B" stroke-opacity="0.08"/>
<path fill-rule="evenodd" clip-rule="evenodd" d="M2082.04 846.501C2155.3 934.691 2213.66 1032.58 2270.6 1126.96C2343.51 1247.73 2411.85 1371.25 2457.43 1498.51C2484.18 1573.23 2513.71 1661.38 2483.04 1737.73C2472.1 1764.97 2447.5 1785.32 2425.79 1808.66C2401.01 1835.28 2378.31 1862.91 2355.97 1890.55C2309.97 1947.44 2265.55 2004.93 2222.69 2063.02C2199.9 2093.78 2169.38 2127.65 2161.47 2162.41C2155.18 2190.05 2164.29 2221.44 2166.94 2249.2C2171.7 2299.19 2176.62 2349.17 2180.8 2399.18C2185.61 2456.89 2190.05 2514.76 2189.28 2572.59C2188.85 2604.82 2195.95 2660.16 2165.84 2682.95C2139.57 2702.84 2044.56 2630.43 2026.51 2617.7C1970.15 2577.94 1916.48 2536.11 1856.21 2499.1C1820.67 2477.23 1777.44 2450.6 1730.34 2441.37C1690.19 2433.52 1644.45 2448.67 1607.34 2457.62C1560.85 2468.8 1512.67 2477.83 1467.16 2490.83C1426.62 2502.41 1390.5 2520.83 1353.64 2537.01C1313.09 2554.81 1271.88 2572.84 1227.65 2586.05C1200.43 2594.15 1154.85 2607.55 1128.91 2591.46C1098.99 2572.87 1118.54 2515.57 1122.8 2492.02C1131.57 2444.24 1144.6 2396.83 1156.27 2349.38C1175.64 2270.56 1192.58 2195.42 1188.52 2115.17C1183.22 2010.65 1170.75 1906.24 1163.85 1801.74C1161.28 1763.16 1156.09 1723.95 1158.89 1685.34C1160.51 1663.2 1170.28 1646.34 1192.33 1633.46C1222.42 1615.88 1239.08 1575.37 1256.35 1547.21C1283.25 1503.29 1308.28 1458.81 1333.63 1414.46C1389.31 1317.1 1442.98 1217.87 1514.99 1125.53C1537.77 1096.32 1563.16 1062.87 1600.79 1041.26C1621.78 1029.21 1641.99 1032.25 1664.29 1024.89C1693.63 1015.14 1706.87 983.105 1716.46 963.954C1735 926.994 1747.43 888.518 1759.07 850.34C1785.4 763.952 1802.71 677.359 1815.46 589.569C1818.42 568.995 1828.68 487.981 1878.14 530.53C1932.8 577.542 1959.59 645.424 1990.39 700.768C2018.08 750.625 2043.85 800.523 2082.04 846.501Z" stroke="#00474B" stroke-opacity="0.08"/>
<path fill-rule="evenodd" clip-rule="evenodd" d="M2068.49 968.378C2132.94 1051.27 2181.02 1143.1 2227.02 1232.38C2282.83 1340.72 2332.59 1451.77 2360.46 1565.39C2377.95 1636.77 2391.39 1715.47 2362.32 1786.36C2342.48 1834.78 2288.84 1872.23 2251.93 1914.75C2215.03 1957.27 2180.39 2001.52 2151.51 2047.08C2133.59 2075.37 2115.54 2105.79 2117.9 2137.25C2123.64 2213.77 2137.32 2290.18 2143.96 2366.78C2148.39 2417.45 2152.04 2468.22 2150.95 2519.04C2150.3 2549.69 2152.96 2591.79 2129.66 2618.93C2103.89 2648.92 1883.85 2489.22 1859.09 2474.13C1796.99 2436.29 1714.58 2390.47 1626.26 2397.78C1541.84 2404.78 1478.81 2435.11 1412.66 2469.42C1375.03 2488.89 1274.51 2551.32 1225.57 2528.18C1197.6 2514.96 1207.28 2471.4 1209.19 2450.7C1212.94 2409.91 1221.02 2369.34 1228.02 2328.76C1238.18 2269.6 1253.87 2208.81 1258.47 2149.39C1261.66 2108.01 1257.39 2066.39 1257.3 2024.94C1257.18 1965.51 1257.83 1906.08 1258.6 1846.65C1259.25 1796.75 1258.6 1746.43 1265.52 1696.7C1269.78 1665.79 1279.34 1642.33 1306.37 1620.15C1329.88 1600.86 1343.64 1571.75 1358.59 1547.16C1383.27 1506.54 1406.14 1465.39 1429.38 1424.37C1478.06 1338.49 1525.71 1251.63 1586.54 1169.44C1614.29 1131.91 1653.14 1068.83 1720.43 1060.02C1744.69 1056.85 1755.18 1054.51 1768.97 1038.12C1788.55 1014.85 1797.37 986.975 1805.05 960.867C1822.94 900.003 1820.26 837.376 1837.95 776.613C1845.23 751.868 1860.97 719.561 1896.98 747.81C1939.11 780.774 1962.26 828.758 1988.28 868.249C2001.26 887.963 2013.42 908.272 2029.27 926.992C2041.48 941.368 2057.14 953.674 2068.49 968.378Z" stroke="#00474B" stroke-opacity="0.08"/>
<path fill-rule="evenodd" clip-rule="evenodd" d="M2048.37 1125.38C2100.72 1201.97 2138.78 1285.14 2173.09 1366.82C2211.14 1457.54 2242.67 1550.46 2256.08 1644.59C2265.37 1709.6 2268.12 1778.86 2239.67 1841.95C2221.68 1881.85 2183.85 1908.9 2152.11 1943.23C2104.16 1995.05 2066.16 2051.11 2075.4 2113.36C2085.75 2183.15 2093.51 2253.17 2098.69 2323.42C2101.81 2365.8 2104.16 2408.33 2101.98 2450.76C2100.61 2477.58 2098.32 2512.14 2080.75 2535.48C2057.23 2566.7 1878.26 2449.42 1852.18 2434.8C1787.48 2398.54 1719.61 2371.96 1639.46 2356.44C1574.05 2343.77 1522.64 2369.64 1473.72 2396.33C1443.33 2412.93 1366.92 2466.54 1327.47 2449.76C1305.71 2440.55 1306.84 2410.21 1305.73 2393.91C1303.62 2362.85 1305.81 2331.66 1306.78 2300.6C1308.26 2254.73 1298.08 2205.92 1306.27 2160.44C1324.41 2059.66 1340.12 1959.14 1352.56 1857.73C1359.41 1801.84 1365.63 1745.6 1378.84 1690.2C1383.58 1670.31 1388.6 1649.77 1399.33 1630.93C1406.22 1618.8 1417.96 1612.2 1427.6 1601.97C1473.45 1553.19 1497.04 1489.51 1526.43 1434.58C1565.5 1361.54 1603.96 1288.12 1650.11 1217.03C1674.39 1179.63 1702.28 1127.41 1751.83 1101.68C1766.79 1093.9 1778.77 1097.22 1793.16 1092.33C1809.76 1086.7 1814.71 1069.61 1819.33 1058.57C1829.84 1033.51 1845.73 928.642 1907.37 976.971C1936.73 1000.03 1955.56 1029.41 1978.64 1055.41C1987 1064.82 1995.4 1074 2006.68 1081.84C2025.59 1094.97 2036.38 1107.9 2048.37 1125.38Z" stroke="#00474B" stroke-opacity="0.08"/>
<path fill-rule="evenodd" clip-rule="evenodd" d="M2025.71 1292.67C2110.4 1443.86 2168.09 1621.05 2156.92 1785.88C2153.18 1840.69 2140.73 1899.67 2098.12 1947.18C2072.95 1975.2 2044.54 1997.59 2035.45 2031.25C2028.89 2055.54 2036.34 2081.7 2039.03 2106.14C2042.94 2141.54 2046.43 2176.96 2049.26 2212.41C2052.71 2256.36 2055.38 2300.45 2053.96 2344.48C2052.93 2375.94 2054.09 2419.39 2029.66 2446.72C2000.52 2479.35 1863.83 2396.29 1839.48 2384.6C1780.45 2356.28 1723.25 2336.42 1652.11 2329.24C1631.38 2327.13 1610.14 2320.02 1589.24 2320.94C1567.91 2321.9 1548.91 2331 1532.14 2339.39C1510.15 2350.37 1458.01 2388.47 1431.19 2377.56C1416.39 2371.53 1414.52 2348.91 1411.38 2337.18C1405.46 2315.18 1402.28 2292.86 1397.57 2270.73C1389.54 2233.18 1363.41 2195.89 1364.15 2158.21C1366.11 2056.87 1411.53 1954.07 1436.48 1854.77C1451.36 1795.73 1464.86 1736.29 1485.01 1677.97C1491.39 1659.52 1498 1640.51 1508.82 1622.97C1516.37 1610.73 1529.83 1602.87 1538.28 1591.53C1570.75 1548.05 1590.46 1498.06 1612.31 1451.37C1640.74 1390.77 1668.31 1329.96 1698.57 1269.77C1717.54 1232.04 1734.22 1183.53 1769.4 1151.03C1795.09 1127.28 1802.77 1143.51 1826.7 1156.04C1838.9 1162.44 1850.92 1160.96 1864.74 1163.74C1884.46 1167.71 1898.66 1178.92 1911.42 1189.44C1929.05 1203.95 1943.58 1223.27 1965.19 1235.13C1972.8 1239.31 1982.25 1239.12 1988.88 1242.5C2008.21 1252.34 2017.74 1278.45 2025.71 1292.67Z" stroke="#00474B" stroke-opacity="0.08"/>
<path fill-rule="evenodd" clip-rule="evenodd" d="M1995.53 1453.42C2048.78 1576.12 2079.1 1712.65 2065.03 1842.36C2060.12 1887.49 2048.73 1932.89 2023.72 1974.93C2012.37 1994.05 1999.73 2008.41 1999.04 2029.37C1997.47 2078 2002.97 2126.78 2004.29 2175.4C2005.24 2210.19 2005.58 2245.16 2001.53 2279.87C1998.84 2303.08 1995.61 2334.46 1975.04 2353.47C1945.07 2381.1 1843.22 2331.23 1815.08 2321.08C1768.41 2304.25 1716.53 2287.56 1662.53 2294.23C1646.01 2296.28 1631.42 2299.9 1614.58 2300.37C1600.11 2300.83 1586.75 2299.57 1572.92 2303.12C1555.77 2307.51 1529.16 2327.03 1513.37 2320.32C1502.58 2315.74 1502.08 2302.18 1498.63 2293.15C1493.03 2278.51 1485.69 2264.22 1476.68 2250.42C1467.14 2235.89 1452.41 2223.51 1444.53 2208.46C1431.76 2184.02 1430.56 2156.67 1430.62 2130.98C1430.86 2028.5 1460.08 1924.71 1490.63 1824.83C1506.54 1772.81 1523.5 1720.51 1547.62 1669.96C1554.96 1654.61 1562.32 1637.21 1575.85 1623.72C1584.28 1615.29 1594.84 1609.58 1601.18 1600.02C1655.3 1518.28 1675.4 1423.79 1714.48 1337.02C1724.66 1314.44 1776.07 1189.28 1824.42 1254.72C1853.81 1294.47 1867.17 1336.48 1907.37 1372.76C1919.58 1383.81 1929.7 1391.18 1948.35 1395.5C1960.76 1398.34 1954.46 1391.49 1967.44 1401.05C1983.03 1412.65 1989.33 1439.12 1995.53 1453.42Z" stroke="#00474B" stroke-opacity="0.08"/>
</svg>
