<svg width="194" height="52" viewBox="0 0 194 52" fill="none" xmlns="http://www.w3.org/2000/svg">
<path d="M21.2022 10.7591C23.4277 9.94783 25.6835 9.37479 28.0669 9.48601C27.8405 9.68731 27.5532 9.68353 27.2844 9.72855C25.3859 10.0466 23.5325 10.5115 21.7776 11.3287C20.1149 12.103 18.675 13.1574 17.5394 14.6087C17.4725 14.6943 17.3697 14.7645 17.3966 14.9179C18.9133 13.6365 20.5714 12.5988 22.3559 11.7653C25.2705 10.404 28.3313 9.85844 31.5351 10.1858C33.1044 10.3462 34.6066 10.7753 36.0435 11.4289C36.1741 11.4882 36.3062 11.5442 36.4496 11.5672C34.4164 10.1635 32.0873 9.6843 29.6811 9.42927C30.0445 9.26936 30.425 9.21159 30.8036 9.21964C34.2749 9.29323 37.3101 10.3782 39.5738 13.1349C40.3205 14.0442 40.8303 15.1009 41.0709 16.269C41.0869 16.3467 41.0993 16.4254 41.109 16.5041C41.1114 16.5236 41.0966 16.5452 41.0778 16.6017C40.6232 16.2378 40.1868 15.8715 39.733 15.5281C36.445 13.0401 32.7543 12.11 28.6726 12.6499C26.5495 12.9307 24.468 13.3618 22.4686 14.1474C20.1869 15.0438 18.3071 16.4765 16.7569 18.3667C15.8189 19.5103 15.1771 20.8243 14.5128 22.1279C14.3757 22.397 14.2406 22.6671 14.0852 22.9299C14.1771 22.2468 14.3865 21.5951 14.5836 20.9368C14.2337 21.5251 13.9092 22.1286 13.7376 22.7921C12.9822 25.7139 12.7429 28.6677 13.2051 31.6656C13.4511 33.2615 13.8277 34.8253 14.2829 36.3722C14.3082 36.4582 14.3283 36.5458 14.3356 36.6368C13.1869 34.5317 12.5817 32.2726 12.3965 29.8885C12.2117 27.5108 12.5439 25.1821 13.0067 22.8571C12.82 23.1469 12.7042 23.4651 12.6078 23.7916C11.594 27.2251 11.8183 30.6348 12.8418 34.0175C13.2346 35.3157 13.8551 36.5067 14.6579 37.6122C15.061 38.1674 15.3199 38.8251 15.6716 39.4202C17.2985 42.1731 19.3796 44.5395 21.8219 46.5942C22.0113 46.7536 22.2176 46.8928 22.427 47.0497C21.5211 46.9227 18.19 44.4344 16.3821 42.5306C14.6254 40.6807 13.2965 38.5356 12.0731 36.3009C12.102 36.4214 12.1264 36.5432 12.1611 36.662C12.1992 36.7926 12.2469 36.9203 12.2899 37.0494C12.8805 38.8232 13.8343 40.4003 14.9167 41.9083C15.3073 42.4524 15.6768 43.0111 15.9847 43.6063C16.077 43.7847 16.2846 44.03 16.0869 44.1824C15.915 44.3149 15.7232 44.0644 15.5794 43.9369C14.3251 42.8252 13.2192 41.5785 12.2715 40.1969C9.90699 36.7498 8.60178 32.9437 8.49523 28.7559C8.33598 22.4947 10.6361 17.289 15.3133 13.1377C18.0246 10.7313 21.1778 9.21254 24.7452 8.55814C24.8568 8.53766 24.9688 8.51008 25.0813 8.50689C25.1704 8.50439 25.3079 8.40136 25.3411 8.5492C25.3641 8.65113 25.2381 8.72164 25.1437 8.757C24.7294 8.91221 24.3097 9.05283 23.896 9.20954C22.9156 9.58087 21.9851 10.0425 21.2022 10.7591ZM11.7716 34.3101C11.3388 32.5105 11.081 30.6817 10.8808 28.8432C10.6856 30.7477 10.9686 32.5724 11.7716 34.3101ZM11.922 21.6327C11.1961 23.0139 10.8393 24.4838 10.7939 26.0319C11.17 24.5655 11.546 23.0991 11.922 21.6327ZM14.4301 16.2768C15.2407 15.2902 16.1738 14.4237 17.022 13.4794C15.9186 14.1929 15.0605 15.1334 14.4301 16.2768ZM9.38047 26.9387C9.23363 27.6631 9.26887 28.2719 9.44384 28.5532C9.42183 27.9924 9.40116 27.4656 9.38047 26.9387Z" fill="white"/>
<path d="M16.7671 36.4436C15.6671 33.8924 15.8338 31.1483 15.5029 28.4779C15.3587 29.189 15.3007 29.9073 15.2938 30.6274C15.273 32.8021 15.6054 34.9221 16.3185 36.9796C16.3371 37.0332 16.3564 37.0868 16.3693 37.1418C16.4105 37.3191 16.4763 37.5161 16.3181 37.6545C16.1459 37.8052 15.98 37.6815 15.8256 37.5794C15.8012 37.5632 15.7635 37.5673 15.7056 37.5577C15.8105 37.9566 16.0307 38.3066 16.0653 38.7427C15.4483 38.2988 14.3011 35.0811 14.0548 32.9801C13.5134 28.3628 14.7448 24.2118 17.5964 20.5814C20.468 16.9256 24.3332 14.9856 28.925 14.5342C31.6822 14.2632 34.3629 14.6768 36.9653 15.8225C36.7577 15.9911 36.6145 15.906 36.4827 15.8734C34.8531 15.47 33.2001 15.2874 31.522 15.3328C29.0632 15.3992 26.7532 16.0238 24.5806 17.1734C22.2482 18.4076 20.3692 20.1541 18.7997 22.2551C18.4748 22.6901 18.1359 23.1147 17.8378 23.572C18.1022 22.4588 18.7323 21.5223 19.2927 20.5504C18.7651 21.0743 18.332 21.6669 17.9384 22.2908C17.1705 23.5078 16.6337 24.8301 16.159 26.181C16.1003 26.3482 16.0617 26.5004 16.2313 26.6396C16.3872 26.7676 16.3437 26.947 16.3044 27.1149C16.1379 27.825 16.0783 28.5489 16.0286 29.2738C16.0206 29.3911 15.9873 29.5127 16.0635 29.6768C16.1345 29.3715 16.2066 29.1125 16.2542 28.849C16.5414 27.2588 17.0922 25.7659 17.8931 24.3639C18.0465 24.0954 18.2232 23.8465 18.4774 23.6637C18.5808 23.5893 18.7001 23.5268 18.8211 23.6151C18.9476 23.7076 18.9121 23.8426 18.8591 23.9562C18.768 24.1511 18.6662 24.3417 18.558 24.5277C17.1806 26.894 16.6246 29.4749 16.5699 32.1829C16.5425 33.5344 16.6642 34.8807 16.763 36.2272C16.7683 36.299 16.7659 36.3714 16.7671 36.4436Z" fill="white"/>
<path d="M40.6194 27.6646C40.4438 27.2815 40.1733 26.9632 39.9317 26.626C39.8392 26.497 39.7488 26.3656 39.646 26.245C39.5015 26.0752 39.5284 25.9233 39.6542 25.7566C39.9488 25.3663 40.1892 24.9412 40.4242 24.5135C40.5989 24.1954 40.6872 24.1709 41.0078 24.3714C41.4638 24.6566 41.8372 25.0408 42.2196 25.411C43.3504 26.5057 44.3455 27.7083 45.0901 29.1037C45.3546 29.5993 45.3462 29.6798 44.9877 30.0998C43.7904 31.5028 42.3187 32.5112 40.5872 33.1416C40.1761 33.2913 40.1287 33.2759 39.9305 32.8732C39.2062 31.4017 38.3239 30.0323 37.282 28.767C37.1008 28.547 37.1349 28.4088 37.3507 28.2422C38.0002 27.7411 38.5775 27.1622 39.095 26.5267C39.2508 26.3354 39.3625 26.3422 39.5336 26.5044C39.9186 26.8693 40.2455 27.2869 40.6194 27.6646Z" fill="white"/>
<path d="M45.1992 21.9697C45.9142 22.7176 46.572 23.5094 47.0821 24.4159C47.2512 24.7165 47.2881 25.0284 47.231 25.3674C47.0146 26.6506 46.5351 27.8287 45.8386 28.9225C45.6558 29.2097 45.5943 29.211 45.4347 28.9169C44.3559 26.9291 42.8859 25.2851 41.0676 23.9489C40.8767 23.8086 40.8387 23.656 40.9265 23.4517C41.4128 22.3192 41.7398 21.1421 41.9151 19.9224C41.9709 19.5339 42.2179 19.6935 42.394 19.7804C43.0281 20.0934 43.589 20.5194 44.129 20.9714C44.5032 21.2846 44.8654 21.6121 45.1992 21.9697Z" fill="white"/>
<path d="M47.3294 24.0934C46.9286 23.5057 46.5735 22.9401 46.1444 22.4277C45.0487 21.1196 43.8092 19.9841 42.2578 19.235C41.9888 19.1051 41.99 18.904 41.985 18.6762C41.9617 17.6165 41.8296 16.5741 41.4936 15.5637C41.4268 15.3628 41.307 15.1768 41.3176 14.9164C41.852 15.0365 42.2664 15.3471 42.6832 15.6494C43.598 16.3131 44.3636 17.1348 45.1219 17.9641C45.2656 18.1212 45.4175 18.2708 45.5799 18.4102C44.9196 17.3979 44.1091 16.5173 43.1995 15.7294C42.5919 15.203 41.9845 14.6661 41.194 14.4145C41.0833 14.3793 41.0435 14.2819 40.993 14.1952C40.3577 13.1042 39.5858 12.1245 38.6375 11.2792C39.2417 11.5379 39.8025 11.87 40.3244 12.2633C42.8328 14.1538 44.9008 16.4231 46.2798 19.2715C46.9343 20.6233 47.3058 22.055 47.3826 23.5585C47.3905 23.7149 47.4056 23.8738 47.3294 24.0934Z" fill="white"/>
<path d="M35.2979 33.0516C35.4023 32.7517 35.2438 32.5903 35.0678 32.4164C34.728 32.0805 34.431 31.7074 34.1948 31.2895C33.9708 30.8932 33.6027 30.5821 33.5021 30.086C34.1652 29.9351 34.8321 29.7652 35.4532 29.4552C35.7788 29.2926 36.097 29.1181 36.3894 28.9023C36.6448 28.7137 36.8578 28.7256 37.0683 28.9725C38.1062 30.1897 38.9255 31.5442 39.5923 32.9931C39.7585 33.3544 39.7158 33.4111 39.3199 33.475C38.2612 33.6457 37.2159 33.6349 36.207 33.2158C36.0304 33.1424 35.8539 33.0556 35.7002 32.9437C35.5242 32.8155 35.4028 32.7928 35.2979 33.0516Z" fill="white"/>
<path d="M28.7261 13.1943C25.4831 13.9874 22.3746 15.0915 19.6114 17.0161C22.0484 14.3217 25.2441 13.4159 28.7261 13.1943Z" fill="white"/>
<path d="M16.7707 43.7633C17.4064 44.3261 17.9997 44.8808 18.6242 45.3977C19.6922 46.2817 20.8563 47.0258 22.0687 47.6971C22.2194 47.7806 22.5323 47.8438 22.4298 48.0553C22.3317 48.2577 22.0849 48.057 21.9216 47.9957C20.4328 47.4361 19.0741 46.6524 17.8833 45.5918C17.4478 45.2039 17.0815 44.7585 16.8504 44.2148C16.7945 44.0832 16.7333 43.9516 16.7707 43.7633Z" fill="white"/>
<path d="M18.4609 42.4444C17.7967 41.5186 16.9728 40.5911 16.7882 39.3153C16.7573 39.1017 16.7376 38.8873 16.7722 38.6716C16.7849 38.5923 16.7898 38.5008 16.8854 38.4845C16.9587 38.472 17.0061 38.5381 17.0434 38.5952C17.0866 38.6614 17.1322 38.7279 17.1621 38.8003C17.6175 39.9036 18.2175 40.9293 18.841 41.9426C18.9538 42.126 19.0665 42.3107 19.1125 42.5252C19.1338 42.6247 19.1648 42.7347 19.0682 42.8097C18.9446 42.9058 18.856 42.7918 18.7708 42.732C18.679 42.6676 18.6039 42.5794 18.4609 42.4444Z" fill="white"/>
<path d="M22.5032 46.1346C21.7045 45.4851 20.8443 44.9226 20.2336 44.0882C20.0979 43.9028 19.9885 43.708 19.9468 43.4813C19.9331 43.407 19.8999 43.3112 19.9787 43.2612C20.0698 43.2035 20.1498 43.2741 20.2229 43.3265C20.2501 43.3459 20.2751 43.3711 20.2943 43.3983C20.9471 44.3239 21.6826 45.1817 22.4382 46.0232C22.4664 46.0545 22.4818 46.0972 22.5032 46.1346Z" fill="white"/>
<path d="M28.6155 8.51288C28.9055 8.35312 29.2077 8.35413 29.512 8.37721C29.5684 8.38148 29.6312 8.39464 29.632 8.4671C29.6326 8.53002 29.5845 8.57762 29.5289 8.58693C29.22 8.63859 28.913 8.64358 28.6155 8.51288Z" fill="white"/>
<path d="M23.7249 48.4791C23.791 48.5416 23.8513 48.6188 23.7731 48.6587C23.5782 48.7583 23.3999 48.6477 23.2312 48.5613C23.1455 48.5174 23.0824 48.3888 23.18 48.344C23.3872 48.249 23.552 48.4382 23.7249 48.4791Z" fill="white"/>
<path d="M70.7156 29.0502H65.9996L65.2436 31.2822H62.0216L66.5936 18.6462H70.1576L74.7296 31.2822H71.4716L70.7156 29.0502ZM69.9236 26.6742L68.3576 22.0482L66.8096 26.6742H69.9236ZM79.3971 28.7622H84.8331V31.2822H75.9051V28.9422L81.3051 21.1662H75.9051V18.6462H84.8331V20.9862L79.3971 28.7622ZM89.8678 18.6462V26.2062C89.8678 26.9622 90.0538 27.5442 90.4258 27.9522C90.7978 28.3602 91.3438 28.5642 92.0638 28.5642C92.7838 28.5642 93.3358 28.3602 93.7198 27.9522C94.1038 27.5442 94.2958 26.9622 94.2958 26.2062V18.6462H97.3738V26.1882C97.3738 27.3162 97.1338 28.2702 96.6538 29.0502C96.1738 29.8302 95.5258 30.4182 94.7098 30.8142C93.9058 31.2102 93.0058 31.4082 92.0098 31.4082C91.0138 31.4082 90.1198 31.2162 89.3278 30.8322C88.5478 30.4362 87.9298 29.8482 87.4738 29.0682C87.0178 28.2762 86.7898 27.3162 86.7898 26.1882V18.6462H89.8678ZM102.613 28.9062H106.645V31.2822H99.5352V18.6462H102.613V28.9062ZM115.006 21.1122V23.6682H119.128V26.0442H115.006V28.8162H119.668V31.2822H111.928V18.6462H119.668V21.1122H115.006ZM135.976 18.6462V31.2822H132.898V23.7042L130.072 31.2822H127.588L124.744 23.6862V31.2822H121.666V18.6462H125.302L128.848 27.3942L132.358 18.6462H135.976ZM141.267 21.1122V23.6682H145.389V26.0442H141.267V28.8162H145.929V31.2822H138.189V18.6462H145.929V21.1122H141.267ZM154.372 31.2822L151.744 26.5122H151.006V31.2822H147.928V18.6462H153.094C154.09 18.6462 154.936 18.8202 155.632 19.1682C156.34 19.5162 156.868 19.9962 157.216 20.6082C157.564 21.2082 157.738 21.8802 157.738 22.6242C157.738 23.4642 157.498 24.2142 157.018 24.8742C156.55 25.5342 155.854 26.0022 154.93 26.2782L157.846 31.2822H154.372ZM151.006 24.3342H152.914C153.478 24.3342 153.898 24.1962 154.174 23.9202C154.462 23.6442 154.606 23.2542 154.606 22.7502C154.606 22.2702 154.462 21.8922 154.174 21.6162C153.898 21.3402 153.478 21.2022 152.914 21.2022H151.006V24.3342ZM167.536 29.0502H162.82L162.064 31.2822H158.842L163.414 18.6462H166.978L171.55 31.2822H168.292L167.536 29.0502ZM166.744 26.6742L165.178 22.0482L163.63 26.6742H166.744ZM176.019 28.9062H180.051V31.2822H172.941V18.6462H176.019V28.9062ZM186.254 18.6462C187.586 18.6462 188.75 18.9102 189.746 19.4382C190.742 19.9662 191.51 20.7102 192.05 21.6702C192.602 22.6182 192.878 23.7162 192.878 24.9642C192.878 26.2002 192.602 27.2982 192.05 28.2582C191.51 29.2182 190.736 29.9622 189.728 30.4902C188.732 31.0182 187.574 31.2822 186.254 31.2822H181.52V18.6462H186.254ZM186.056 28.6182C187.22 28.6182 188.126 28.3002 188.774 27.6642C189.422 27.0282 189.746 26.1282 189.746 24.9642C189.746 23.8002 189.422 22.8942 188.774 22.2462C188.126 21.5982 187.22 21.2742 186.056 21.2742H184.598V28.6182H186.056Z" fill="white"/>
</svg>
