<svg width="211.733887" height="51.564331" viewBox="0 0 211.734 51.5643" fill="none" xmlns="http://www.w3.org/2000/svg" xmlns:xlink="http://www.w3.org/1999/xlink">
	<desc>
			Created with Pixso.
	</desc>
	<defs/>
	<path id="Vector" d="M21.2 10.75C23.42 9.94 25.68 9.37 28.06 9.48C27.84 9.68 27.55 9.68 27.28 9.72C25.38 10.04 23.53 10.51 21.77 11.32C20.11 12.1 18.67 13.15 17.53 14.6C17.47 14.69 17.36 14.76 17.39 14.91C18.91 13.63 20.57 12.59 22.35 11.76C25.27 10.4 28.33 9.85 31.53 10.18C33.1 10.34 34.6 10.77 36.04 11.42C36.17 11.48 36.3 11.54 36.45 11.56C34.41 10.16 32.08 9.68 29.68 9.42C30.04 9.26 30.42 9.21 30.8 9.21C34.27 9.29 37.31 10.37 39.57 13.13C40.32 14.04 40.83 15.1 41.07 16.26C41.08 16.34 41.09 16.42 41.1 16.5C41.11 16.52 41.09 16.54 41.07 16.6C40.62 16.23 40.18 15.87 39.73 15.52C36.44 13.04 32.75 12.11 28.67 12.65C26.54 12.93 24.46 13.36 22.46 14.14C20.18 15.04 18.3 16.47 16.75 18.36C15.81 19.51 15.17 20.82 14.51 22.12C14.37 22.39 14.24 22.66 14.08 22.93C14.17 22.24 14.38 21.59 14.58 20.93C14.23 21.52 13.9 22.12 13.73 22.79C12.98 25.71 12.74 28.66 13.2 31.66C13.45 33.26 13.82 34.82 14.28 36.37C14.3 36.45 14.32 36.54 14.33 36.63C13.18 34.53 12.58 32.27 12.39 29.88C12.21 27.51 12.54 25.18 13 22.85C12.82 23.14 12.7 23.46 12.6 23.79C11.59 27.22 11.81 30.63 12.84 34.01C13.23 35.31 13.85 36.5 14.65 37.61C15.06 38.16 15.32 38.82 15.67 39.42C17.29 42.17 19.37 44.53 21.82 46.59C22.01 46.75 22.21 46.89 22.42 47.04C21.52 46.92 18.19 44.43 16.38 42.53C14.62 40.68 13.29 38.53 12.07 36.3C12.1 36.42 12.12 36.54 12.16 36.66C12.19 36.79 12.24 36.92 12.29 37.04C12.88 38.82 13.83 40.4 14.91 41.9C15.3 42.45 15.67 43.01 15.98 43.6C16.07 43.78 16.28 44.03 16.08 44.18C15.91 44.31 15.72 44.06 15.57 43.93C14.32 42.82 13.21 41.57 12.27 40.19C9.9 36.75 8.6 32.94 8.49 28.75C8.33 22.49 10.63 17.28 15.31 13.13C18.02 10.73 21.17 9.21 24.74 8.55C24.85 8.53 24.96 8.51 25.08 8.5C25.17 8.5 25.3 8.4 25.34 8.54C25.36 8.65 25.23 8.72 25.14 8.75C24.72 8.91 24.3 9.05 23.89 9.2C22.91 9.58 21.98 10.04 21.2 10.75ZM11.77 34.31C11.33 32.51 11.08 30.68 10.88 28.84C10.68 30.74 10.96 32.57 11.77 34.31ZM11.92 21.63C11.19 23.01 10.83 24.48 10.79 26.03C11.17 24.56 11.54 23.09 11.92 21.63ZM14.43 16.27C15.24 15.29 16.17 14.42 17.02 13.47C15.91 14.19 15.06 15.13 14.43 16.27ZM9.38 26.93C9.23 27.66 9.26 28.27 9.44 28.55C9.42 27.99 9.4 27.46 9.38 26.93Z" fill="#000000" fill-opacity="1.000000" fill-rule="nonzero"/>
	<path id="Vector" d="M16.76 36.44C15.66 33.89 15.83 31.14 15.5 28.47C15.35 29.18 15.3 29.9 15.29 30.62C15.27 32.8 15.6 34.92 16.31 36.97C16.33 37.03 16.35 37.08 16.36 37.14C16.41 37.31 16.47 37.51 16.31 37.65C16.14 37.8 15.98 37.68 15.82 37.57C15.8 37.56 15.76 37.56 15.7 37.55C15.81 37.95 16.03 38.3 16.06 38.74C15.44 38.29 14.3 35.08 14.05 32.98C13.51 28.36 14.74 24.21 17.59 20.58C20.46 16.92 24.33 14.98 28.92 14.53C31.68 14.26 34.36 14.67 36.96 15.82C36.75 15.99 36.61 15.9 36.48 15.87C34.85 15.47 33.2 15.28 31.52 15.33C29.06 15.39 26.75 16.02 24.58 17.17C22.24 18.4 20.36 20.15 18.79 22.25C18.47 22.69 18.13 23.11 17.83 23.57C18.1 22.45 18.73 21.52 19.29 20.55C18.76 21.07 18.33 21.66 17.93 22.29C17.17 23.5 16.63 24.83 16.15 26.18C16.1 26.34 16.06 26.5 16.23 26.63C16.38 26.76 16.34 26.94 16.3 27.11C16.13 27.82 16.07 28.54 16.02 29.27C16.02 29.39 15.98 29.51 16.06 29.67C16.13 29.37 16.2 29.11 16.25 28.84C16.54 27.25 17.09 25.76 17.89 24.36C18.04 24.09 18.22 23.84 18.47 23.66C18.58 23.58 18.7 23.52 18.82 23.61C18.94 23.7 18.91 23.84 18.85 23.95C18.76 24.15 18.66 24.34 18.55 24.52C17.18 26.89 16.62 29.47 16.56 32.18C16.54 33.53 16.66 34.88 16.76 36.22C16.76 36.29 16.76 36.37 16.76 36.44Z" fill="#000000" fill-opacity="1.000000" fill-rule="nonzero"/>
	<path id="Vector" d="M40.61 27.66C40.44 27.28 40.17 26.96 39.93 26.62C39.83 26.49 39.74 26.36 39.64 26.24C39.5 26.07 39.52 25.92 39.65 25.75C39.94 25.36 40.18 24.94 40.42 24.51C40.59 24.19 40.68 24.17 41 24.37C41.46 24.65 41.83 25.04 42.21 25.41C43.35 26.5 44.34 27.7 45.09 29.1C45.35 29.59 45.34 29.67 44.98 30.1C43.79 31.5 42.31 32.51 40.58 33.14C40.17 33.29 40.12 33.27 39.93 32.87C39.2 31.4 38.32 30.03 37.28 28.76C37.1 28.54 37.13 28.4 37.35 28.24C38 27.74 38.57 27.16 39.09 26.52C39.25 26.33 39.36 26.34 39.53 26.5C39.91 26.86 40.24 27.28 40.61 27.66Z" fill="#000000" fill-opacity="1.000000" fill-rule="nonzero"/>
	<path id="Vector" d="M45.19 21.97C45.91 22.71 46.57 23.5 47.08 24.41C47.25 24.71 47.28 25.02 47.23 25.36C47.01 26.65 46.53 27.82 45.83 28.92C45.65 29.21 45.59 29.21 45.43 28.91C44.35 26.92 42.88 25.28 41.06 23.94C40.87 23.8 40.83 23.65 40.92 23.45C41.41 22.31 41.73 21.14 41.91 19.92C41.97 19.53 42.21 19.69 42.39 19.78C43.02 20.09 43.58 20.51 44.12 20.97C44.5 21.28 44.86 21.61 45.19 21.97Z" fill="#000000" fill-opacity="1.000000" fill-rule="nonzero"/>
	<path id="Vector" d="M47.32 24.09C46.92 23.5 46.57 22.93 46.14 22.42C45.04 21.11 43.8 19.98 42.25 19.23C41.98 19.1 41.98 18.9 41.98 18.67C41.96 17.61 41.82 16.57 41.49 15.56C41.42 15.36 41.3 15.17 41.31 14.91C41.85 15.03 42.26 15.34 42.68 15.64C43.59 16.31 44.36 17.13 45.12 17.96C45.26 18.12 45.41 18.27 45.57 18.41C44.91 17.39 44.1 16.51 43.19 15.72C42.59 15.2 41.98 14.66 41.19 14.41C41.08 14.37 41.04 14.28 40.99 14.19C40.35 13.1 39.58 12.12 38.63 11.27C39.24 11.53 39.8 11.87 40.32 12.26C42.83 14.15 44.9 16.42 46.27 19.27C46.93 20.62 47.3 22.05 47.38 23.55C47.39 23.71 47.4 23.87 47.32 24.09Z" fill="#000000" fill-opacity="1.000000" fill-rule="nonzero"/>
	<path id="Vector" d="M35.29 33.05C35.4 32.75 35.24 32.59 35.06 32.41C34.72 32.08 34.43 31.7 34.19 31.28C33.97 30.89 33.6 30.58 33.5 30.08C34.16 29.93 34.83 29.76 35.45 29.45C35.77 29.29 36.09 29.11 36.38 28.9C36.64 28.71 36.85 28.72 37.06 28.97C38.1 30.18 38.92 31.54 39.59 32.99C39.75 33.35 39.71 33.41 39.31 33.47C38.26 33.64 37.21 33.63 36.2 33.21C36.03 33.14 35.85 33.05 35.7 32.94C35.52 32.81 35.4 32.79 35.29 33.05Z" fill="#000000" fill-opacity="1.000000" fill-rule="nonzero"/>
	<path id="Vector" d="M28.72 13.19C25.48 13.98 22.37 15.09 19.61 17.01C22.04 14.32 25.24 13.41 28.72 13.19Z" fill="#000000" fill-opacity="1.000000" fill-rule="nonzero"/>
	<path id="Vector" d="M16.77 43.76C17.4 44.32 18 44.88 18.62 45.39C19.69 46.28 20.85 47.02 22.06 47.69C22.21 47.78 22.53 47.84 22.43 48.05C22.33 48.25 22.08 48.05 21.92 47.99C20.43 47.43 19.07 46.65 17.88 45.59C17.44 45.2 17.08 44.75 16.85 44.21C16.79 44.08 16.73 43.95 16.77 43.76Z" fill="#000000" fill-opacity="1.000000" fill-rule="nonzero"/>
	<path id="Vector" d="M18.46 42.44C17.79 41.51 16.97 40.59 16.78 39.31C16.75 39.1 16.73 38.88 16.77 38.67C16.78 38.59 16.78 38.5 16.88 38.48C16.95 38.47 17 38.53 17.04 38.59C17.08 38.66 17.13 38.72 17.16 38.8C17.61 39.9 18.21 40.92 18.84 41.94C18.95 42.12 19.06 42.31 19.11 42.52C19.13 42.62 19.16 42.73 19.06 42.8C18.94 42.9 18.85 42.79 18.77 42.73C18.67 42.66 18.6 42.57 18.46 42.44Z" fill="#000000" fill-opacity="1.000000" fill-rule="nonzero"/>
	<path id="Vector" d="M22.5 46.13C21.7 45.48 20.84 44.92 20.23 44.08C20.09 43.9 19.98 43.7 19.94 43.48C19.93 43.4 19.89 43.31 19.97 43.26C20.06 43.2 20.14 43.27 20.22 43.32C20.25 43.34 20.27 43.37 20.29 43.39C20.94 44.32 21.68 45.18 22.43 46.02C22.46 46.05 22.48 46.09 22.5 46.13Z" fill="#000000" fill-opacity="1.000000" fill-rule="nonzero"/>
	<path id="Vector" d="M28.61 8.51C28.9 8.35 29.2 8.35 29.51 8.37C29.56 8.38 29.63 8.39 29.63 8.46C29.63 8.53 29.58 8.57 29.52 8.58C29.22 8.63 28.91 8.64 28.61 8.51Z" fill="#000000" fill-opacity="1.000000" fill-rule="nonzero"/>
	<path id="Vector" d="M23.72 48.47C23.79 48.54 23.85 48.61 23.77 48.65C23.57 48.75 23.4 48.64 23.23 48.56C23.14 48.51 23.08 48.38 23.18 48.34C23.38 48.24 23.55 48.43 23.72 48.47Z" fill="#000000" fill-opacity="1.000000" fill-rule="nonzero"/>
	<path id="AZUL EMERALD" d="M65.24 29.45L69.18 29.45C69.4 30.1 70.1 32.4 70.26 33.05C70.37 33.52 70.21 33.7 69.72 33.7L69.22 33.7C69.13 33.7 69.11 33.77 69.11 33.86L69.11 34.2C69.11 34.33 69.13 34.44 69.31 34.44C69.67 34.44 70.3 34.38 71.79 34.38C74.09 34.38 74.47 34.44 74.81 34.44C74.96 34.44 74.98 34.31 74.98 34.2L74.98 33.86C74.98 33.77 74.96 33.7 74.85 33.7L74.24 33.7C73.97 33.7 73.5 33.48 73.19 32.89C72.94 32.4 71.77 29.06 71.36 27.65C71.02 26.5 69.61 22.47 69.27 21.33C69.22 21.14 69.18 21.03 69.07 21.03C68.98 21.03 68.93 21.1 68.84 21.19C68.57 21.5 67.4 21.96 66.82 22.09C66.68 22.13 66.64 22.2 66.64 22.25C66.64 22.32 66.71 22.41 66.77 22.49C66.88 22.67 66.82 22.88 66.77 23.05C66.76 23.07 66.76 23.08 66.75 23.1C66.59 23.58 65.13 27.45 64.99 27.81C64.39 29.4 63.11 32.53 62.86 32.91C62.5 33.45 62.07 33.7 61.64 33.7L61.17 33.7C61.06 33.7 61.04 33.75 61.04 33.86L61.04 34.2C61.04 34.33 61.06 34.44 61.17 34.44C61.42 34.44 61.82 34.38 63.13 34.38C64.61 34.38 65.35 34.44 65.58 34.44C65.72 34.44 65.74 34.38 65.74 34.24L65.74 33.84C65.74 33.77 65.72 33.7 65.54 33.7L64.91 33.7C64.37 33.7 64.21 33.27 64.21 32.87C64.21 32.3 65.09 29.83 65.24 29.45ZM175.01 29.45L178.96 29.45C179.17 30.1 179.87 32.4 180.04 33.05C180.14 33.52 179.98 33.7 179.5 33.7L178.99 33.7C178.9 33.7 178.88 33.77 178.88 33.86L178.88 34.2C178.88 34.33 178.9 34.44 179.08 34.44C179.44 34.44 180.07 34.38 181.57 34.38C183.87 34.38 184.25 34.44 184.59 34.44C184.73 34.44 184.75 34.31 184.75 34.2L184.75 33.86C184.75 33.77 184.73 33.7 184.63 33.7L184.01 33.7C183.74 33.7 183.28 33.48 182.97 32.89C182.72 32.4 181.55 29.06 181.13 27.65C180.79 26.5 179.39 22.47 179.05 21.33C178.99 21.14 178.96 21.03 178.85 21.03C178.76 21.03 178.7 21.1 178.61 21.19C178.34 21.5 177.17 21.96 176.6 22.09C176.45 22.13 176.42 22.2 176.42 22.25C176.42 22.32 176.49 22.41 176.54 22.49C176.66 22.67 176.59 22.88 176.54 23.05C176.54 23.07 176.53 23.08 176.53 23.1C176.36 23.58 174.91 27.45 174.76 27.81C174.17 29.4 172.89 32.53 172.64 32.91C172.31 33.4 171.92 33.65 171.52 33.69C171.11 33.67 170.55 33.53 170.36 33.32C170 32.91 169.03 31.54 168.92 31.38C168.78 31.16 167.79 29.56 167.55 29.27C167.21 28.84 166.92 28.5 166.36 28.32L166.36 28.19C167.95 28.05 169.66 27.02 169.66 24.74C169.66 24.07 169.28 23.37 168.63 22.77C167.89 22.09 166.85 21.59 165.45 21.59C164.71 21.59 163.12 21.64 162.12 21.64C160.15 21.64 159.6 21.59 159.43 21.59C159.34 21.59 159.33 21.62 159.33 21.71L159.33 22.2C159.33 22.27 159.34 22.32 159.43 22.32L160.15 22.32C160.41 22.32 160.64 22.63 160.66 23.22C160.68 23.71 160.68 24.86 160.68 26.19L160.68 27.94C160.68 29.65 160.68 31.34 160.64 33.12C160.64 33.57 160.32 33.7 159.92 33.7L159.38 33.7C159.29 33.7 159.29 33.75 159.29 33.84L159.29 34.26C159.29 34.38 159.29 34.44 159.43 34.44C159.63 34.44 160.05 34.38 161.95 34.38C163.84 34.38 164.29 34.44 164.31 34.44C164.58 34.44 164.6 34.4 164.6 34.28L164.6 33.84C164.6 33.75 164.58 33.7 164.46 33.7L163.72 33.7C163.45 33.7 163.3 33.38 163.27 33C163.23 32.76 163.18 30.75 163.18 29.69L163.18 28.77L163.79 28.77C164.65 28.77 165.39 30.1 166 31.32C166.31 31.94 167.43 34.02 167.97 34.44C168.49 34.42 169.15 34.38 169.68 34.38C170.19 34.38 170.57 34.39 170.86 34.4C170.88 34.42 170.91 34.44 170.95 34.44C171.04 34.44 171.16 34.43 171.34 34.42C171.52 34.43 171.62 34.44 171.67 34.44C171.73 34.44 171.77 34.43 171.79 34.4C172.06 34.39 172.42 34.38 172.91 34.38C174.38 34.38 175.12 34.44 175.36 34.44C175.5 34.44 175.52 34.38 175.52 34.24L175.52 33.84C175.52 33.77 175.5 33.7 175.32 33.7L174.69 33.7C174.15 33.7 173.99 33.27 173.99 32.87C173.99 32.3 174.87 29.83 175.01 29.45ZM79.79 22.29L83.54 22.29C83.41 22.5 76.01 32.75 75.28 33.88C75.2 33.99 75.19 34.13 75.19 34.24C75.19 34.38 75.38 34.38 75.53 34.38L79.74 34.38C81.36 34.38 84.22 34.46 85.21 34.58C85.45 34.62 85.59 34.64 85.66 34.64C85.75 34.64 85.86 34.55 85.9 34.46C86.15 33.97 87.01 31.76 87.26 31.34C87.32 31.25 87.28 31.22 87.23 31.18L86.92 31.02C86.83 30.98 86.76 31 86.69 31.07C86.44 31.38 84.67 33.23 84.15 33.47C83.7 33.66 83.32 33.66 82.82 33.66L78.48 33.66C78.84 33.18 86.72 22.13 86.87 21.96C87.03 21.77 86.9 21.53 86.62 21.53C86.49 21.53 85.91 21.55 85.3 21.59C84.62 21.6 83.68 21.64 82.58 21.64C81.09 21.64 78.55 21.64 77.71 21.53C77.56 21.51 77.42 21.5 77.29 21.5C77.2 21.5 77.09 21.53 77.04 21.69L75.91 24.9C75.89 24.99 75.91 25.04 75.96 25.06L76.27 25.22C76.34 25.26 76.43 25.2 76.48 25.11C76.86 24.63 78.41 22.88 78.79 22.63C79.25 22.31 79.54 22.29 79.79 22.29ZM89.01 23.24L89.01 27.49C89.01 29.85 89.08 31.05 89.39 31.83C89.82 32.98 90.61 33.83 91.48 34.2C92.23 34.53 93.39 34.65 94.23 34.65C95.4 34.65 96.63 34.24 97.42 33.54C98.35 32.71 98.84 31.58 98.95 30.1C99 29.4 99.04 26.25 99.04 26C99.04 25.74 99.04 23.26 99.07 23.01C99.11 22.83 99.16 22.32 99.85 22.32L100.41 22.32C100.5 22.32 100.51 22.25 100.51 22.14L100.51 21.75C100.51 21.66 100.5 21.59 100.33 21.59C100.17 21.59 99.6 21.64 98.62 21.64C97.4 21.64 96.57 21.59 96.39 21.59C96.28 21.59 96.27 21.62 96.27 21.71L96.27 22.18C96.27 22.27 96.28 22.32 96.39 22.32L96.97 22.32C97.27 22.32 97.56 22.65 97.63 23.12C97.71 23.53 97.89 25.51 97.89 27.02L97.89 29.79C97.89 31.09 97.47 32.08 96.75 32.73C96.27 33.18 95.29 33.52 94.63 33.52C93.82 33.52 92.97 33.23 92.38 32.51C91.98 32.01 91.82 31.2 91.8 30.37C91.78 29.79 91.71 27.51 91.71 26.55L91.71 25.37C91.71 24.45 91.73 23.22 91.75 23.03C91.78 22.67 92.09 22.32 92.7 22.32L93.31 22.32C93.44 22.32 93.46 22.29 93.46 22.2L93.46 21.73C93.46 21.62 93.44 21.59 93.3 21.59C93.1 21.59 92.23 21.64 90.65 21.64C88.76 21.64 87.88 21.59 87.7 21.59C87.55 21.59 87.54 21.62 87.54 21.73L87.54 22.16C87.54 22.29 87.55 22.32 87.66 22.32L88.51 22.32C88.89 22.32 89.01 22.61 89.01 23.24ZM105.46 28.75L105.46 27.2C105.46 25.94 105.51 23.22 105.51 22.99C105.51 22.5 105.58 22.32 106.14 22.32L106.99 22.32C107.13 22.32 107.17 22.27 107.17 22.18L107.17 21.77C107.17 21.64 107.15 21.59 107 21.59C106.84 21.59 106.09 21.64 103.98 21.64C102.34 21.64 101.69 21.59 101.5 21.59C101.39 21.59 101.37 21.62 101.37 21.71L101.37 22.14C101.37 22.23 101.39 22.32 101.5 22.32L102.16 22.32C102.58 22.32 102.67 22.5 102.7 22.97C102.72 23.26 102.76 25.17 102.76 26.32L102.76 27.33C102.76 28.43 102.7 32.91 102.7 33.25C102.7 33.45 102.59 33.7 101.93 33.7L101.37 33.7C101.26 33.7 101.24 33.74 101.24 33.83L101.24 34.28C101.24 34.4 101.26 34.44 101.39 34.44C101.62 34.44 102.27 34.38 104.05 34.38C105.71 34.38 110.89 34.4 111.36 34.44C111.47 33.95 112.19 30.98 112.24 30.86C112.26 30.75 112.26 30.73 112.21 30.69L111.85 30.55C111.74 30.5 111.68 30.55 111.63 30.66C111.36 31.32 110.14 33.48 109.16 33.57C108.19 33.66 107.38 33.66 106.54 33.66L105.51 33.66C105.46 32.94 105.46 29.06 105.46 28.75ZM121.05 27.49L121.1 22.25L123.48 22.32C123.96 22.34 124.47 22.58 124.85 22.81C125.26 23.06 126.88 24.68 126.97 24.83C127.02 24.92 127.11 24.93 127.19 24.9L127.47 24.75C127.56 24.7 127.56 24.66 127.53 24.57C127.46 24.39 126.86 21.93 126.79 21.68C126.77 21.62 126.74 21.59 126.65 21.59C126.56 21.59 126.21 21.62 125.93 21.62L119.61 21.64C117.97 21.64 117.34 21.59 116.94 21.59C116.84 21.59 116.82 21.66 116.82 21.71L116.82 22.14C116.82 22.27 116.84 22.32 116.91 22.32L117.61 22.32C118.1 22.32 118.28 22.45 118.35 23.03C118.37 23.21 118.4 25.42 118.4 26.91L118.4 32.94C118.4 33.57 118.33 33.7 117.5 33.7L116.96 33.7C116.84 33.7 116.78 33.75 116.78 33.86L116.78 34.24C116.78 34.38 116.82 34.44 116.94 34.44C117.11 34.44 117.34 34.42 117.72 34.4C118.08 34.4 118.58 34.38 119.25 34.38C122.36 34.38 124.27 34.4 125.44 34.4C126.59 34.42 126.99 34.44 127.08 34.44C127.29 34.44 127.42 34.33 127.47 34.17L128.28 31.45C128.3 31.4 128.28 31.34 128.21 31.31L127.91 31.13C127.85 31.09 127.8 31.11 127.73 31.18C127.37 31.61 126.36 32.73 125.89 33.11C125.42 33.48 124.88 33.66 124.52 33.7C124.14 33.74 123.39 33.75 123.08 33.75C122.18 33.75 121.84 33.7 121.57 33.59C121.34 33.48 121.14 33.16 121.14 32.22C121.14 31.9 121.05 30.15 121.05 29.18L121.05 28.1C121.84 28.1 122.4 28.14 122.88 28.21C123.24 28.26 123.68 28.5 123.87 28.84C123.98 29.06 124.16 29.47 124.23 29.76C124.27 29.88 124.31 29.92 124.38 29.9L124.81 29.81C124.9 29.79 124.97 29.78 124.95 29.67C124.92 29.29 124.85 28.43 124.85 27.62C124.85 26.99 124.85 26.05 124.9 25.74C124.92 25.64 124.85 25.62 124.76 25.6L124.27 25.55C124.18 25.55 124.13 25.58 124.13 25.71C124.13 26.05 123.91 26.55 123.71 26.82C123.44 27.15 123.19 27.31 122.88 27.38C122.67 27.44 121.88 27.49 121.05 27.49ZM131.43 32.03C131.32 30.44 131.3 27.99 131.3 27.78C131.3 27.56 131.34 23.01 131.41 22.76C131.55 22.97 133.21 27 133.53 27.83C133.66 28.16 136.04 33.74 136.09 33.86C136.18 34.06 136.29 34.19 136.41 34.19C136.63 34.19 136.76 33.92 136.85 33.77C136.94 33.61 138.54 29.61 138.92 28.79C139.24 28.05 141.26 23.15 141.44 22.85L141.54 22.85L141.54 28.34C141.54 29.6 141.49 32.87 141.47 33.09C141.44 33.59 141.27 33.7 140.97 33.7L139.96 33.7C139.83 33.7 139.82 33.74 139.82 33.83L139.82 34.28C139.82 34.38 139.83 34.44 139.96 34.44C140.19 34.44 140.9 34.38 142.73 34.38C144.86 34.38 145.18 34.44 145.4 34.44C145.54 34.44 145.56 34.38 145.56 34.28L145.56 33.83C145.56 33.75 145.54 33.7 145.43 33.7L144.57 33.7C144.32 33.7 144.15 33.41 144.15 32.73C144.15 32.4 144.1 28.46 144.1 28.1C144.08 27.72 144.06 23.3 144.06 23.03C144.06 22.65 144.12 22.32 144.53 22.32L145.32 22.32C145.45 22.32 145.47 22.27 145.47 22.16L145.47 21.75C145.47 21.64 145.45 21.59 145.36 21.59C145.16 21.59 144.55 21.64 141.74 21.64C141.2 21.64 140.97 21.66 140.91 21.86C140.82 22.22 139.02 26.52 138.95 26.7C138.84 26.95 137.48 30.3 137.28 30.64C136.27 27.94 134.97 24.95 133.82 21.89C133.71 21.6 133.57 21.59 133.39 21.59C133.17 21.59 132.62 21.64 131.77 21.64C129.65 21.64 129.16 21.59 128.98 21.59C128.87 21.59 128.85 21.64 128.85 21.69L128.85 22.2C128.85 22.27 128.87 22.32 128.98 22.32L129.57 22.32C130.38 22.32 130.56 22.86 130.56 23.69L130.58 26.45C130.58 26.77 130.42 31.02 130.26 32.3C130.19 32.87 129.97 33.7 129.39 33.7L128.66 33.7C128.57 33.7 128.55 33.75 128.55 33.81L128.55 34.28C128.55 34.42 128.57 34.44 128.71 34.44C128.87 34.44 129.5 34.38 131.03 34.38C132.35 34.38 132.83 34.44 133.03 34.44C133.17 34.44 133.19 34.38 133.19 34.31L133.19 33.83C133.19 33.75 133.17 33.7 133.07 33.7L132.36 33.7C131.77 33.7 131.48 32.69 131.43 32.03ZM151.12 27.49L151.18 22.25L153.55 22.32C154.04 22.34 154.54 22.58 154.92 22.81C155.34 23.06 156.96 24.68 157.05 24.83C157.1 24.92 157.19 24.93 157.26 24.9L157.55 24.75C157.64 24.7 157.64 24.66 157.6 24.57C157.53 24.39 156.94 21.93 156.87 21.68C156.85 21.62 156.81 21.59 156.72 21.59C156.63 21.59 156.29 21.62 156 21.62L149.68 21.64C148.05 21.64 147.42 21.59 147.02 21.59C146.91 21.59 146.89 21.66 146.89 21.71L146.89 22.14C146.89 22.27 146.91 22.32 146.98 22.32L147.69 22.32C148.17 22.32 148.35 22.45 148.42 23.03C148.44 23.21 148.48 25.42 148.48 26.91L148.48 32.94C148.48 33.57 148.41 33.7 147.58 33.7L147.04 33.7C146.91 33.7 146.86 33.75 146.86 33.86L146.86 34.24C146.86 34.38 146.89 34.44 147.02 34.44C147.18 34.44 147.42 34.42 147.79 34.4C148.15 34.4 148.66 34.38 149.32 34.38C152.44 34.38 154.35 34.4 155.52 34.4C156.67 34.42 157.06 34.44 157.15 34.44C157.37 34.44 157.5 34.33 157.55 34.17L158.36 31.45C158.38 31.4 158.36 31.34 158.29 31.31L157.98 31.13C157.93 31.09 157.87 31.11 157.8 31.18C157.44 31.61 156.43 32.73 155.97 33.11C155.5 33.48 154.96 33.66 154.6 33.7C154.22 33.74 153.46 33.75 153.16 33.75C152.26 33.75 151.92 33.7 151.65 33.59C151.41 33.48 151.21 33.16 151.21 32.22C151.21 31.9 151.12 30.15 151.12 29.18L151.12 28.1C151.92 28.1 152.47 28.14 152.96 28.21C153.32 28.26 153.75 28.5 153.95 28.84C154.06 29.06 154.24 29.47 154.31 29.76C154.35 29.88 154.38 29.92 154.45 29.9L154.89 29.81C154.98 29.79 155.05 29.78 155.03 29.67C154.99 29.29 154.92 28.43 154.92 27.62C154.92 26.99 154.92 26.05 154.98 25.74C154.99 25.64 154.92 25.62 154.83 25.6L154.35 25.55C154.26 25.55 154.2 25.58 154.2 25.71C154.2 26.05 153.99 26.55 153.79 26.82C153.52 27.15 153.27 27.31 152.96 27.38C152.74 27.44 151.95 27.49 151.12 27.49ZM189.43 28.75L189.43 27.2C189.43 25.94 189.48 23.22 189.48 22.99C189.48 22.5 189.55 22.32 190.11 22.32L190.96 22.32C191.1 22.32 191.14 22.27 191.14 22.18L191.14 21.77C191.14 21.64 191.12 21.59 190.97 21.59C190.81 21.59 190.06 21.64 187.95 21.64C186.31 21.64 185.66 21.59 185.47 21.59C185.36 21.59 185.34 21.62 185.34 21.71L185.34 22.14C185.34 22.23 185.36 22.32 185.47 22.32L186.13 22.32C186.55 22.32 186.64 22.5 186.67 22.97C186.69 23.26 186.73 25.17 186.73 26.32L186.73 27.33C186.73 28.43 186.67 32.91 186.67 33.25C186.67 33.45 186.56 33.7 185.9 33.7L185.34 33.7C185.23 33.7 185.21 33.74 185.21 33.83L185.21 34.28C185.21 34.4 185.23 34.44 185.36 34.44C185.59 34.44 186.24 34.38 188.02 34.38C189.68 34.38 194.86 34.4 195.33 34.44C195.44 33.95 196.16 30.98 196.21 30.86C196.23 30.75 196.23 30.73 196.18 30.69L195.82 30.55C195.71 30.5 195.65 30.55 195.6 30.66C195.33 31.32 194.11 33.48 193.13 33.57C192.16 33.66 191.35 33.66 190.51 33.66L189.48 33.66C189.43 32.94 189.43 29.06 189.43 28.75ZM198.13 26.12L198.13 27.47C198.13 28.84 198.06 32.89 198.01 33.27C197.97 33.56 197.77 33.7 197.43 33.7L196.5 33.7C196.41 33.7 196.35 33.74 196.35 33.81L196.35 34.28C196.35 34.4 196.39 34.44 196.48 34.44C196.73 34.44 197.45 34.38 199.02 34.38C200.01 34.38 202.13 34.44 202.42 34.44C203.55 34.44 206.63 34.42 208.38 32.53C209.56 31.23 210.16 29.87 210.16 27.8C210.16 25.71 209.33 24.21 208.14 23.22C206.43 21.8 204.49 21.59 202.04 21.59C201.63 21.59 199.83 21.64 199.36 21.64C197.56 21.64 196.77 21.59 196.53 21.59C196.46 21.59 196.41 21.6 196.41 21.68L196.41 22.2C196.41 22.31 196.46 22.32 196.55 22.32L197.45 22.32C197.76 22.32 197.99 22.4 198.04 22.83C198.08 23.1 198.13 25.65 198.13 26.12ZM163.2 28.14L163.29 22.88C163.32 22.67 163.38 22.47 163.48 22.4C163.63 22.27 163.86 22.23 164.17 22.23C164.71 22.23 165.52 22.45 166.17 23.03C166.56 23.42 166.85 24.21 166.85 25.04C166.85 25.89 166.29 28.16 163.92 28.16C163.75 28.16 163.54 28.16 163.2 28.14ZM200.83 27.87L200.83 26.59C200.83 26.3 200.83 23.94 200.85 23.19C200.87 22.83 200.94 22.54 201.21 22.41C201.45 22.29 201.72 22.27 202.22 22.27C203.26 22.27 204.85 22.85 205.8 23.91C206.65 24.84 207.26 26.36 207.26 27.83C207.26 29.51 206.7 30.98 205.98 31.94C205.05 33.18 203.66 33.7 202.62 33.7C202 33.7 201.39 33.59 201.18 33.27C200.94 32.93 200.87 32.64 200.87 32.28C200.85 31.16 200.83 28.1 200.83 27.87ZM69.02 28.73L65.47 28.73C65.62 28.28 67.16 24.03 67.25 23.8C67.31 23.64 67.36 23.57 67.47 23.57C67.56 23.57 67.6 23.69 67.67 23.96C67.79 24.41 68.86 28.19 69.02 28.73ZM178.79 28.73L175.25 28.73C175.39 28.28 176.94 24.03 177.03 23.8C177.08 23.64 177.14 23.57 177.25 23.57C177.34 23.57 177.37 23.69 177.44 23.96C177.57 24.41 178.63 28.19 178.79 28.73Z" fill="#000000" fill-opacity="1.000000" fill-rule="evenodd"/>
</svg>
